<svg width="276" height="233" viewBox="0 0 276 233" fill="none" xmlns="http://www.w3.org/2000/svg">
<path d="M91.0884 258.331L100.145 211.481C102.537 213.191 108.587 216.303 110.227 217.124C112.278 218.149 119.113 220.885 122.872 221.74C119.284 239.694 113.645 272.01 110.227 276.456C106.932 280.741 80.9497 282.372 75.1964 279.704C68.1902 276.456 68.5922 268.302 72.9749 263.29C76.5634 259.186 86.7024 258.502 91.0884 258.331Z" fill="#FDFEFE" stroke="black"/>
<path d="M211.047 258.16L201.819 210.284C199.427 211.994 193.378 215.789 191.737 216.61C189.687 217.636 183.022 220.714 179.263 221.569C182.851 239.522 188.49 271.839 191.908 276.284C195.203 280.57 221.186 282.201 226.939 279.533C233.945 276.284 233.543 268.13 229.16 263.118C225.572 259.015 215.433 258.331 211.047 258.16Z" fill="#FDFEFE" stroke="black"/>
<path d="M251.204 113.335C249.017 75.3081 222.496 68.651 209.509 70.0759C209.908 70.8168 213.098 70.7598 216.686 72.2987C221.084 74.1846 228.876 77.9412 232.065 80.677C235.483 83.8687 246.26 101.625 242.318 127.014C236.85 162.237 224.718 186.688 198.231 205.667C177.318 220.653 146.625 225.046 132.783 223.963C148.675 228.751 176.667 222.757 183.535 220.372C191.908 217.465 207.987 206.864 216.515 198.144C229.502 184.864 253.392 151.362 251.204 113.335Z" fill="#FDFEFE" stroke="black"/>
<path d="M200.281 33.8265C192.98 22.9344 172.655 18.4948 163.029 18.0958C165.251 18.8368 171.324 20.1168 177.212 21.8575C184.731 24.0803 194.813 30.9198 196.864 37.4172C198.935 43.9798 196.009 58.1065 197.889 62.7231C199.393 66.4164 205.749 69.2205 208.996 69.9045C207.857 69.1065 203.617 66.6711 203.186 60.5003C202.674 53.1479 209.68 47.8473 200.281 33.8265Z" fill="#FDFEFE" stroke="black"/>
<path d="M195.839 35.0234C193.038 29.0188 185.067 24.6348 177.064 21.7342C167.199 18.1584 156.497 17.398 146.146 19.1227C120.729 23.3577 85.3498 38.6273 68.3612 81.1895C45.9757 137.273 68.3612 187.372 97.7528 209.771C147.65 245.336 212.927 210.797 232.579 162.579C251.51 116.127 239.926 89.0549 231.382 79.6507C223.497 70.9714 204.512 71.2523 199.427 65.1169C193.618 58.1065 201.82 47.8474 195.839 35.0234Z" fill="#FDFEFE" stroke="black"/>
<rect x="131.574" y="95.2292" width="13.4396" height="26.0204" rx="6.71979" transform="rotate(3.69898 131.574 95.2292)" fill="#FDFEFE" stroke="black"/>
<rect x="0.466719" y="0.531236" width="8.94101" height="14.5018" rx="4.4705" transform="matrix(0.997914 0.0645535 -0.0644754 0.997919 133.172 101.212)" fill="black" stroke="black"/>
<rect x="148.321" y="96.597" width="13.4396" height="26.0204" rx="6.71979" transform="rotate(3.69898 148.321 96.597)" fill="#FDFEFE" stroke="black"/>
<rect x="0.466719" y="0.531236" width="8.94101" height="15.2291" rx="4.4705" transform="matrix(0.997914 0.0645535 -0.0644754 0.997919 149.966 101.855)" fill="black" stroke="black"/>
<path d="M147.137 31.9333C156.469 31.9333 164.068 39.8052 164.068 49.5574C164.068 59.3097 156.469 67.1824 147.137 67.1824C137.805 67.1822 130.208 59.3096 130.208 49.5574C130.208 39.8053 137.806 31.9335 147.137 31.9333Z" fill="#F6ED70" stroke="black"/>
<path d="M102.708 60.6588C112.04 60.6588 119.638 68.5307 119.639 78.2828C119.639 88.0351 112.04 95.9078 102.708 95.9078C93.3762 95.9076 85.7783 88.035 85.7783 78.2828C85.7786 68.5308 93.3764 60.6589 102.708 60.6588Z" fill="#EFBB48" stroke="black"/>
<path d="M90.4044 116.742C99.7362 116.742 107.335 124.614 107.335 134.366C107.335 144.118 99.7363 151.991 90.4044 151.991C81.0726 151.991 73.4747 144.118 73.4747 134.366C73.475 124.614 81.0728 116.742 90.4044 116.742Z" fill="#E85D3A" stroke="#545454"/>
<path d="M201.136 83.229C210.468 83.229 218.066 91.1009 218.067 100.853C218.067 110.605 210.468 118.478 201.136 118.478C191.804 118.478 184.206 110.605 184.206 100.853C184.207 91.101 191.804 83.2291 201.136 83.229Z" fill="#D0A4FB" stroke="black"/>
<path d="M196.241 134.738C202.3 132.851 209.654 135.359 211.688 141.191C213.345 145.941 212.673 151.912 209.595 157.138C206.657 161.271 202.853 164.323 198.925 165.781C194.998 167.238 190.965 167.1 187.502 164.891C183.792 162.523 182.365 158.993 182.488 154.952C182.611 150.895 184.303 146.335 186.849 142.01C190.465 137.737 193.209 135.683 196.241 134.738Z" fill="#FDFEFE" stroke="black"/>
<path d="M207.315 138.612C210.21 139.559 212.414 141.863 212.671 145.358C212.924 148.799 211.777 152.811 209.499 157.088C206.571 161.289 201.934 164.677 197.626 166.14C195.468 166.873 193.433 167.109 191.757 166.762C190.1 166.418 188.782 165.505 187.996 163.884C185.956 159.674 186.622 155.233 189.699 148.937C191.219 145.827 194.949 142.118 197.854 140.12C200.802 138.092 204.403 137.66 207.315 138.612Z" fill="#F9EB76" stroke="black"/>
<path d="M166.617 173.167C175.949 173.167 183.548 181.039 183.548 190.791C183.548 200.543 175.949 208.416 166.617 208.416C157.286 208.416 149.688 200.543 149.688 190.791C149.688 181.039 157.286 173.167 166.617 173.167Z" fill="black" stroke="black"/>
<path d="M115.012 165.302C124.343 165.302 131.942 173.174 131.942 182.926C131.942 192.678 124.344 200.551 115.012 200.551C105.68 200.551 98.0819 192.678 98.0819 182.926C98.0821 173.174 105.68 165.302 115.012 165.302Z" fill="#D0A4FB" stroke="black"/>
<path d="M136.785 127.444C137.168 127.425 137.685 127.553 138.387 127.902C139.083 128.248 139.918 128.787 140.92 129.531C142.965 131.048 145.74 130.859 147.835 129.584C149.521 128.557 151.151 128.018 152.392 128.003C153.009 127.996 153.498 128.119 153.854 128.342C154.199 128.559 154.453 128.891 154.576 129.383C154.892 130.641 154.563 131.894 153.673 133.031C152.776 134.176 151.313 135.193 149.409 135.915C146.101 137.169 142.284 136.973 139.317 135.125C137.922 134.256 136.786 133.205 136.055 132.184C135.309 131.142 135.05 130.225 135.211 129.584C135.409 128.794 135.643 128.258 135.909 127.92C136.158 127.605 136.435 127.462 136.785 127.444Z" fill="#FDFEFE" stroke="black"/>
<path d="M41.1459 90.092C44.0398 97.1363 57.7821 98.0571 64.5 94.4315L61.7571 106.292L60.8429 112.222L59.9286 119.065C54.5886 119.237 43.7299 121.169 32.8777 113.918C21.3401 106.209 18.5804 86.2935 16.8578 75.0711C16.1688 75.2437 13.7572 74.7603 9.623 71.4454C5.48883 68.1304 4.44203 61.0459 4.61429 57.9381C3.58074 56.7295 0.5 52.7494 0.5 46.5339C0.5 40.3184 7.72816 40.1952 10.6565 40.8858C10.4843 40.0226 10.7599 37.7781 13.2404 35.7062C15.7209 33.6344 19.7861 34.1524 21.5086 34.6705C20.1305 26.3831 21.6993 15.5088 28.5 15.5088C37.5285 15.5087 35.9782 34.02 35.9782 43.9937C37.7008 44.857 42.1871 48.7399 42.6964 54.3528C43.2133 60.0502 41.1461 67.8197 37.5285 70.4096C37.5285 74.0353 38.252 83.0478 41.1459 90.092Z" fill="#FDFEFE" stroke="black"/>
<path d="M35.5 43.3785C30.0069 43.9122 20.0142 44.9135 20.5184 51.3834C21.0174 57.7873 29.0081 56.3642 33.003 55.6526C31.5049 55.8305 28.2091 56.6132 27.0106 58.3209C25.8121 60.0286 25.5125 65.0806 25.5125 67.3931" stroke="black"/>
<path d="M21.5 34.3731C22.3889 35.8035 24.7 38.9714 25.0556 40.8024C25.4111 42.6333 25.5 44.6168 25.5 45.3797" stroke="black"/>
<path d="M10.5 40.3767C11.4167 43.5492 13.1217 50.9385 15.5417 53.0667C17.9617 55.1948 20.8278 54.1505 21.5 53.9731" stroke="black"/>
<path d="M239.737 170.465C250.219 161.378 252.578 164.028 244 156.052L247.5 143.545L249 137.541L250.5 131.037C263.517 141.66 275.867 149.586 275.486 161.378C275.104 173.171 260.239 187.477 252.887 187.09C253.204 187.992 253.649 190.841 252.887 195.016C252.124 199.192 247.233 200.88 244.882 201.203C242.849 205.069 237.45 211.99 232.113 208.742C227.91 206.184 230.684 200.578 233.635 196.802C229.323 201.455 224.025 205.959 220.297 201.396C217.383 197.828 220.216 192.831 223.959 188.622C220.983 190.848 217.879 192.176 216.105 190.377C213.437 187.67 213.627 180.711 220.297 174.718C225.705 169.859 235.226 169.176 239.737 170.465Z" fill="#FDFEFE"/>
<path d="M244 156.052C252.578 164.028 250.219 161.378 239.737 170.465C235.226 169.176 225.705 169.859 220.297 174.718C213.627 180.711 213.437 187.67 216.105 190.377C219.211 193.528 226.396 187.09 229.826 183.03C224.681 187.283 215.876 195.983 220.297 201.396C224.719 206.809 231.351 199.463 235.925 194.243C232.685 197.336 226.777 205.494 232.113 208.742C237.45 211.99 242.849 205.069 244.882 201.203C247.233 200.88 252.124 199.192 252.887 195.016C253.649 190.841 253.204 187.992 252.887 187.09C260.239 187.477 275.104 173.171 275.486 161.378C275.867 149.586 263.517 141.66 250.5 131.037L249 137.541L247.5 143.545L244 156.052Z" stroke="black"/>
<path d="M4.5 57.9999C6.16667 58.1695 9.95455 59.0178 12.2273 57.4909C14.4321 56.0096 15 53.3796 15 52.5313" stroke="black"/>
<path d="M11.5 8.25306L17.5 14.2567" stroke="black" stroke-width="4" stroke-linecap="round"/>
<path d="M28.6998 1L28.6332 9.59384" stroke="black" stroke-width="4" stroke-linecap="round"/>
<path d="M44.2112 6.15535L39.1149 13.0763" stroke="black" stroke-width="4" stroke-linecap="round"/>
</svg>
