<svg width="223" height="258" viewBox="0 0 223 258" fill="none" xmlns="http://www.w3.org/2000/svg">
<path d="M161.444 198.513C158.054 198.709 153.849 200.163 148.599 202.978C143.358 205.785 137.156 209.902 129.777 215.333C121.468 221.452 102.979 221.028 94.5 215.333C82.8504 207.512 77.706 202.663 68.1855 201.884C63.4299 201.496 59.3572 202.076 56.2486 203.635C53.1709 205.179 50.9769 207.716 49.9911 211.399C47.5654 220.487 50.7853 229.446 58.4178 237.115C66.0596 244.798 78.1047 251.147 93.141 254.89C108.468 258.705 124.984 258.114 139.26 251.747C150.558 246.707 160.186 239.639 166.595 232.424C173.05 225.158 174.626 218 174.626 212.57C174.626 211.207 174.487 209.708 174.21 208.238C173.098 202.335 167.441 198.165 161.444 198.513Z" fill="black" stroke="black"/>
<path d="M113.694 252.564C97.4271 252.564 80.4808 244.237 75.0586 240.906C85.2264 234.245 105.559 232.58 113.694 232.58C121.825 232.58 144.194 235.911 150.293 240.906C144.194 245.347 130.041 252.564 113.694 252.564Z" fill="#685BC7" stroke="#685BC7"/>
<path d="M124.748 46.6401C124.847 21.3408 146.698 0.907178 173.554 1.00032C200.407 1.09346 222.099 21.6781 221.999 46.9774L221.683 128.163C221.583 153.462 199.733 173.896 172.877 173.803C146.024 173.71 124.332 153.125 124.431 127.826L124.748 46.6401Z" fill="#FDFEFE" stroke="black" stroke-width="2"/>
<path d="M172.234 42.1438C190.698 42.2076 205.611 56.3076 205.542 73.6371L205.401 109.626C205.333 126.955 190.311 140.952 171.846 140.888C153.384 140.824 138.472 126.724 138.537 109.395L138.678 73.4059C138.747 56.0767 153.772 42.0802 172.234 42.1438Z" fill="black" stroke="black"/>
<path d="M1.31703 48.9911C1.41639 23.6919 23.267 3.25825 50.123 3.35139C76.9759 3.4445 98.6682 24.0292 98.5688 49.3285L98.249 130.514C98.1527 155.813 76.3021 176.247 49.4461 176.154C22.5932 176.061 0.900977 155.476 1.00034 130.177L1.31703 48.9911Z" fill="#FDFEFE" stroke="black" stroke-width="2"/>
<path d="M48.2118 44.4948C66.3527 44.5587 81.0036 58.6587 80.936 75.9879L80.7978 111.977C80.7302 129.306 65.9717 143.303 47.8309 143.239C29.69 143.175 15.0391 129.075 15.1067 111.746L15.2449 75.757C15.3125 58.4278 30.071 44.431 48.2118 44.4948Z" fill="black" stroke="black"/>
</svg>
