<svg width="239" height="222" viewBox="0 0 239 222" fill="none" xmlns="http://www.w3.org/2000/svg">
<g clip-path="url(#clip0_481_4428)">
<path d="M72.9666 247.51L79.7672 209.163C83.2593 209.53 92.0754 210.081 94.8383 210.081C97.9628 210.081 100.536 210.264 104.947 210.631C101.087 229.896 97.2276 262.555 93.5519 267.325C90.0082 271.924 66.7176 271.362 60.4686 269.527C52.5005 267.188 53.3652 257.291 58.0792 251.913C61.9388 247.51 68.2492 247.693 72.9666 247.51Z" fill="#FDFEFE" stroke="black"/>
<path d="M187.702 250.557L184.898 214.668C181.038 214.484 173.294 213.934 170.929 213.934C167.566 213.934 163.21 213.567 159.718 213.567C161.372 233.932 162.363 264.213 165.416 268.976C168.359 273.569 190.566 271.154 197.433 271.154C204.598 271.154 204.38 258.702 199.418 255.216C194.962 252.086 191.62 250.74 187.702 250.557Z" fill="#FDFEFE" stroke="black"/>
<path d="M73.749 23.8865L201.97 25.0472C205.661 25.0806 208.635 28.0767 208.635 31.7609V120.36L207.615 208.802C207.571 212.614 204.359 215.625 200.545 215.43L70.9576 208.796C67.3454 208.611 64.5265 205.608 64.5766 201.997L66.9625 30.5073C67.0141 26.8122 70.047 23.853 73.749 23.8865Z" fill="#FDFEFE" stroke="black"/>
<path d="M80.4595 53.3923L193.871 54.4884C195.33 54.5024 196.504 55.6866 196.504 57.1425V80.077C196.504 81.5588 195.289 82.7539 193.804 82.7311L80.8333 80.9826C79.4012 80.9604 78.244 79.8103 78.2156 78.381L77.7751 56.0988C77.7457 54.6027 78.9604 53.3779 80.4595 53.3923Z" fill="black" stroke="black"/>
<path d="M148.183 96.1562L192.138 96.7911C193.591 96.812 194.758 97.9943 194.758 99.4452V147.09C194.758 148.556 193.568 149.744 192.099 149.744H148.805C147.351 149.744 146.166 148.578 146.146 147.126L145.486 98.8466C145.466 97.3516 146.686 96.1347 148.183 96.1562Z" stroke="black"/>
<path d="M146.852 148.433L194.271 98.3434" stroke="black"/>
<path d="M146.485 97.059L194.088 148.433" stroke="black"/>
<path d="M81.1931 159.812L106.02 160.082C107.477 160.098 108.651 161.282 108.651 162.737V181.767C108.651 183.233 107.46 184.421 105.992 184.421H81.5153C80.0656 184.421 78.8832 183.262 78.8569 181.815L78.5059 162.515C78.4787 161.019 79.6946 159.796 81.1931 159.812Z" stroke="black"/>
<path d="M162.432 162.379L189.094 162.653C190.552 162.668 191.726 163.851 191.726 165.307V184.336C191.726 185.802 190.535 186.99 189.067 186.99H162.777C161.328 186.99 160.146 185.832 160.118 184.387L159.746 165.084C159.718 163.588 160.933 162.364 162.432 162.379Z" stroke="black"/>
<path d="M120.894 161.279L146.822 161.551C148.279 161.566 149.453 162.75 149.453 164.205V183.235C149.453 184.701 148.262 185.889 146.794 185.889H121.23C119.781 185.889 118.598 184.731 118.571 183.285L118.207 163.983C118.179 162.487 119.395 161.264 120.894 161.279Z" stroke="black"/>
<path d="M79.7737 95.9376L132.052 96.095C133.136 96.0981 134.014 96.9769 134.014 98.0596C134.014 99.1413 133.133 100.017 132.049 100.012L79.7587 99.7594C78.752 99.7547 77.9212 98.9721 77.8577 97.9693C77.7876 96.8663 78.6666 95.9342 79.7737 95.9376Z" fill="#7F7F7F"/>
<path d="M79.7737 108.414L132.052 108.571C133.136 108.575 134.014 109.453 134.014 110.536C134.014 111.618 133.133 112.494 132.049 112.488L79.7587 112.236C78.752 112.231 77.9212 111.448 77.8577 110.446C77.7876 109.343 78.6666 108.411 79.7737 108.414Z" fill="#7F7F7F"/>
<path d="M79.7334 132.636L114.04 132.787C115.125 132.792 116.002 133.672 116.002 134.755C116.002 135.836 115.12 136.71 114.038 136.702L79.7115 136.46C78.691 136.453 77.8555 135.648 77.8114 134.63C77.7644 133.54 78.6401 132.631 79.7334 132.636Z" fill="#7F7F7F"/>
<path d="M79.4265 189.409L107.373 189.537C108.284 189.542 109.02 190.28 109.02 191.189C109.02 192.096 108.28 192.829 107.372 192.822L79.4074 192.617C78.5506 192.611 77.8496 191.934 77.8139 191.08C77.776 190.165 78.5103 189.405 79.4265 189.409Z" fill="#7F7F7F"/>
<path d="M79.4077 195.659L97.6753 195.78C98.5869 195.786 99.3226 196.525 99.3226 197.435C99.3226 198.34 98.5822 199.072 97.6747 199.062L79.3799 198.868C78.5168 198.859 77.8151 198.171 77.7901 197.31C77.7638 196.401 78.4974 195.653 79.4077 195.659Z" fill="#7F7F7F"/>
<path d="M119.781 190.346L147.728 190.474C148.639 190.479 149.375 191.217 149.375 192.126C149.375 193.033 148.635 193.766 147.726 193.759L119.762 193.554C118.905 193.548 118.204 192.871 118.169 192.016C118.131 191.102 118.865 190.342 119.781 190.346Z" fill="#7F7F7F"/>
<path d="M119.763 196.907L138.343 197.029C139.254 197.035 139.99 197.774 139.99 198.684C139.99 199.59 139.25 200.321 138.342 200.312L119.736 200.117C118.872 200.108 118.171 199.42 118.145 198.559C118.119 197.651 118.853 196.901 119.763 196.907Z" fill="#7F7F7F"/>
<path d="M161.7 191.595L189.647 191.723C190.558 191.728 191.294 192.466 191.294 193.375C191.294 194.282 190.554 195.015 189.645 195.008L161.681 194.803C160.824 194.797 160.123 194.12 160.087 193.266C160.05 192.351 160.784 191.591 161.7 191.595Z" fill="#7F7F7F"/>
<path d="M161.682 198.469L180.262 198.59C181.173 198.596 181.909 199.335 181.909 200.245C181.909 201.151 181.169 201.883 180.261 201.873L161.654 201.678C160.791 201.669 160.089 200.982 160.064 200.12C160.038 199.212 160.772 198.463 161.682 198.469Z" fill="#7F7F7F"/>
<path d="M79.7737 120.89L132.052 121.048C133.136 121.051 134.014 121.93 134.014 123.012C134.014 124.094 133.133 124.97 132.049 124.965L79.7587 124.712C78.752 124.707 77.9212 123.925 77.8577 122.922C77.7876 121.819 78.6666 120.887 79.7737 120.89Z" fill="#7F7F7F"/>
<path d="M201.807 25.1363C204.993 24.4636 212.404 25.7674 214.122 29.5398C215.96 33.5762 215.554 88.4422 215.554 116.392L215.592 112.288C221.535 118.465 234.191 132.684 236.691 140.611C239.815 150.518 239.735 163.459 233.236 167.698C225.922 172.468 215.224 167.997 214.452 167.698C213.957 167.506 211.732 167.147 211.365 166.413C209.159 167.698 203.791 167.294 200.85 163.478C198.149 159.971 201.374 156.713 204.31 155.548C201.477 156.368 196.311 156.591 195.374 153.386C194.459 150.254 198.513 146.455 201.851 145.054C196.283 146.838 187.073 148.559 184.677 144.647C181.038 138.708 188.303 132.791 200.483 132.721C204.302 132.699 207.017 132.749 209.128 132.933L208.608 132.837C208.73 98.4659 208.792 31.5579 207.873 29.5398C206.776 27.1308 203.217 25.6868 201.807 25.1363Z" fill="#FDFEFE"/>
<path d="M201.807 25.1363C204.993 24.4636 212.404 25.7674 214.122 29.5398C215.96 33.5762 215.554 88.4422 215.554 116.392L215.592 112.288C221.535 118.465 234.191 132.684 236.691 140.611C239.815 150.518 239.735 163.459 233.236 167.698C225.922 172.468 215.224 167.997 214.452 167.698C213.957 167.506 211.732 167.147 211.365 166.413C209.159 167.698 203.791 167.294 200.85 163.478C197.91 159.661 201.991 156.139 205.078 155.289C202.542 156.289 196.404 156.909 195.374 153.386C194.345 149.864 199.602 145.497 203.056 144.647C197.726 146.543 187.255 148.857 184.677 144.647C181.038 138.708 188.303 132.791 200.483 132.721C212.284 132.654 213.532 133.272 219.046 136.391C223.457 138.886 225.79 139.748 226.464 139.993L213.599 133.754L208.608 132.837C208.73 98.4659 208.792 31.5579 207.873 29.5398C206.776 27.1308 203.217 25.6868 201.807 25.1363Z" stroke="black"/>
<path d="M213.938 208.429C213.055 215.035 203.032 215.768 198.315 215.402C199.969 215.475 203.461 214.668 204.564 213.75C206.018 212.541 207.459 210.264 207.689 208.429C207.782 207.687 207.995 180.48 208.056 166.964C208.363 167.025 209.049 167.147 209.343 167.147C209.637 167.147 210.813 166.536 211.365 166.23L212.1 166.964C212.394 167.257 213.448 167.453 213.938 167.514C214.305 178.4 214.82 201.824 213.938 208.429Z" fill="#FDFEFE" stroke="black"/>
<path d="M127.884 37.9567C128.48 37.9929 129.219 38.2618 130.142 38.782C131.063 39.301 132.154 40.0621 133.45 41.0661C134.911 42.1972 136.958 42.0801 138.448 41.0274C140.496 39.5815 142.604 38.7239 144.277 38.58C145.113 38.5081 145.829 38.6153 146.375 38.9035C146.916 39.1889 147.302 39.658 147.475 40.3388C147.902 42.0189 147.336 43.6749 145.994 45.0927C144.651 46.5129 142.533 47.6865 139.89 48.3785C137.196 49.0837 134.293 48.9744 131.783 47.7974C129.798 46.8658 128.105 45.5592 126.978 44.2255C125.844 42.8823 125.314 41.5498 125.567 40.5552C125.805 39.6168 126.101 38.9472 126.478 38.5231C126.847 38.1084 127.299 37.9211 127.884 37.9567Z" fill="#FDFEFE" stroke="black"/>
<path d="M133.974 9.76117C133.957 5.07154 130.135 1.28383 125.437 1.30109C120.739 1.31836 116.945 5.13405 116.962 9.82369L117.018 24.8728C117.035 29.5624 120.857 33.3501 125.555 33.3329C130.253 33.3156 134.047 29.4999 134.03 24.8103L133.974 9.76117Z" fill="#FDFEFE" stroke="black"/>
<path d="M125.702 8.96026L125.702 8.96026C122.494 8.97204 119.904 11.5771 119.916 14.7788L119.94 21.428C119.952 24.6298 122.562 27.2157 125.769 27.2039L125.769 27.2039C128.976 27.1921 131.567 24.5871 131.555 21.3853L131.531 14.7362C131.519 11.5344 128.909 8.94847 125.702 8.96026Z" fill="black" stroke="black"/>
<path d="M155.662 10.1282C155.645 5.4386 151.822 1.65089 147.124 1.66816C142.427 1.68542 138.632 5.50112 138.65 10.1908L138.705 25.2398C138.723 29.9295 142.545 33.7172 147.243 33.6999C151.94 33.6827 155.735 29.867 155.717 25.1773L155.662 10.1282Z" fill="#FDFEFE" stroke="black"/>
<path d="M147.39 9.32731L147.389 9.32731C144.182 9.33909 141.592 11.9442 141.604 15.1459L141.628 21.7951C141.64 24.9968 144.249 27.5828 147.457 27.571L147.457 27.571C150.664 27.5592 153.255 24.9541 153.243 21.7524L153.218 15.1032C153.206 11.9015 150.597 9.31552 147.39 9.32731Z" fill="black" stroke="black"/>
<path d="M36.2075 57.2446C39.516 60.3637 35.2888 69.1708 35.2888 69.3541C35.2888 67.5194 34.268 66.5523 32.5318 65.1342C30.51 63.4828 26.0989 63.6664 24.8123 64.2167C25.2412 63.7885 26.6503 63.1159 28.1207 61.8314C29.2599 60.8365 29.591 58.529 29.2234 57.0613C30.4487 56.0826 33.561 54.7495 36.2075 57.2446Z" fill="#FDFEFE" stroke="black"/>
<path d="M8.24248 17.0827L37.5712 86.3036C38.3167 88.0627 37.4964 90.0923 35.7368 90.8427C33.979 91.5922 31.9459 90.7709 31.2052 89.0121L2.01329 19.7049C1.32011 18.0591 2.03106 16.1591 3.63531 15.3701C5.37854 14.5128 7.48544 15.296 8.24248 17.0827Z" fill="#986FF2" stroke="black"/>
<path d="M16.174 90.4539L20.7689 94.3069" stroke="black"/>
<path d="M40.6187 109.902C46.6841 112.288 60.7138 97.426 66.1664 91.1878V118.709C64.6348 120.727 60.5421 125.424 56.4253 128.066C51.2789 131.369 41.3539 135.222 31.2452 131.92C21.1365 128.617 18.1957 118.709 16.5415 112.655C15.2182 107.811 15.7451 95.8358 16.174 90.4539C15.6839 90.087 14.2258 88.6557 12.3143 85.867C9.92496 82.381 4.96249 73.7576 7.90319 65.868C10.8439 57.9785 19.6661 54.1255 24.261 53.5749C28.8559 53.0247 29.7748 57.4282 29.0396 60.1804C28.4515 62.382 20.5851 66.7855 16.7254 69.5377C17.093 69.2928 18.7839 68.1799 22.6068 65.6844C27.3855 62.5653 32.3479 64.0333 34.3697 66.7855C35.987 68.9871 34.5536 72.7177 33.6345 74.3078C33.2057 74.0633 31.4291 73.7576 28.672 73.9409C26.1736 74.1073 23.8934 75.4086 22.7906 76.5097C23.7096 75.7759 25.9886 74.2713 27.7531 74.1245C29.9586 73.9409 35.84 73.0237 36.943 78.7114C37.8252 83.2617 33.5119 85.9892 31.2452 86.7842L32.7155 90.0869C32.7155 96.8754 33.1062 106.948 40.6187 109.902Z" fill="#FDFEFE" stroke="black"/>
<path d="M31.9803 82.9313L31.9553 82.9691C31.4933 83.6608 30.8278 84.1926 30.0505 84.4908C29.2662 84.7922 28.4196 84.8952 27.5858 84.7912L27.3855 84.7663M30.0505 84.4908L31.4291 87.1515" stroke="black"/>
</g>
<defs>
<clipPath id="clip0_481_4428">
<rect width="239" height="272" fill="white"/>
</clipPath>
</defs>
</svg>
