<svg width="239" height="282" viewBox="0 0 239 282" fill="none" xmlns="http://www.w3.org/2000/svg">
<ellipse cx="128.5" cy="262.5" rx="110.5" ry="19.5" fill="#252528"/>
<g clip-path="url(#clip0_665_12099)">
<path d="M72.9658 247.51L79.7664 209.163C83.2585 209.53 92.0746 210.081 94.8375 210.081C97.962 210.081 100.535 210.264 104.946 210.631C101.087 229.896 97.2268 262.555 93.5511 267.325C90.0074 271.924 66.7168 271.362 60.4678 269.527C52.4997 267.188 53.3644 257.291 58.0784 251.913C61.9381 247.51 68.2484 247.693 72.9658 247.51Z" fill="#FBFBFB" stroke="black"/>
<path d="M187.703 250.557L184.899 214.668C181.039 214.484 173.295 213.934 170.93 213.934C167.567 213.934 163.211 213.567 159.719 213.567C161.373 233.933 162.364 264.213 165.417 268.977C168.36 273.569 190.567 271.154 197.434 271.154C204.599 271.154 204.381 258.702 199.419 255.216C194.963 252.086 191.621 250.74 187.703 250.557Z" fill="#FBFBFB" stroke="black"/>
<path d="M73.7473 23.8865L201.969 25.0472C205.659 25.0806 208.633 28.0767 208.633 31.7609V120.36L207.613 208.802C207.569 212.614 204.358 215.625 200.543 215.43L70.9559 208.796C67.3437 208.611 64.5248 205.608 64.5749 201.997L66.9608 30.5073C67.0124 26.8122 70.0453 23.853 73.7473 23.8865Z" fill="#FBFBFB" stroke="black"/>
<path d="M80.4583 53.3922L193.87 54.4883C195.328 54.5024 196.503 55.6866 196.503 57.1424V80.0769C196.503 81.5587 195.288 82.7538 193.803 82.7311L80.8322 80.9826C79.4 80.9604 78.2429 79.8103 78.2144 78.3809L77.774 56.0988C77.7446 54.6026 78.9593 53.3778 80.4583 53.3922Z" fill="black" stroke="black"/>
<path d="M148.182 96.1562L192.137 96.791C193.59 96.812 194.757 97.9943 194.757 99.4452V147.089C194.757 148.556 193.566 149.744 192.098 149.744H148.804C147.349 149.744 146.165 148.578 146.145 147.126L145.485 98.8465C145.464 97.3516 146.684 96.1346 148.182 96.1562Z" stroke="black"/>
<path d="M146.852 148.433L194.271 98.3435" stroke="black"/>
<path d="M146.484 97.0591L194.087 148.433" stroke="black"/>
<path d="M81.1915 159.812L106.019 160.082C107.476 160.098 108.649 161.282 108.649 162.737V181.767C108.649 183.233 107.458 184.421 105.99 184.421H81.5138C80.0641 184.421 78.8816 183.262 78.8553 181.815L78.5044 162.515C78.4771 161.019 79.6931 159.796 81.1915 159.812Z" stroke="black"/>
<path d="M162.432 162.379L189.094 162.653C190.552 162.668 191.726 163.851 191.726 165.307V184.336C191.726 185.802 190.535 186.99 189.067 186.99H162.777C161.329 186.99 160.146 185.832 160.119 184.387L159.747 165.084C159.718 163.588 160.933 162.364 162.432 162.379Z" stroke="black"/>
<path d="M120.894 161.279L146.822 161.551C148.28 161.566 149.453 162.75 149.453 164.205V183.235C149.453 184.701 148.262 185.889 146.794 185.889H121.23C119.781 185.889 118.599 184.731 118.571 183.285L118.208 163.983C118.179 162.487 119.395 161.263 120.894 161.279Z" stroke="black"/>
<path d="M79.7755 95.9376L132.054 96.095C133.138 96.0981 134.016 96.9769 134.016 98.0596C134.016 99.1414 133.134 100.017 132.051 100.012L79.7604 99.7594C78.7538 99.7547 77.9229 98.9721 77.8594 97.9694C77.7893 96.8664 78.6684 95.9342 79.7755 95.9376Z" fill="#7F7F7F"/>
<path d="M79.7755 108.414L132.054 108.571C133.138 108.575 134.016 109.453 134.016 110.536C134.016 111.618 133.134 112.494 132.051 112.488L79.7604 112.236C78.7538 112.231 77.9229 111.449 77.8594 110.446C77.7893 109.343 78.6684 108.411 79.7755 108.414Z" fill="#7F7F7F"/>
<path d="M79.7324 132.636L114.039 132.787C115.124 132.792 116.001 133.672 116.001 134.755C116.001 135.836 115.119 136.71 114.037 136.702L79.7105 136.46C78.6901 136.453 77.8545 135.648 77.8104 134.63C77.7635 133.54 78.6391 132.631 79.7324 132.636Z" fill="#7F7F7F"/>
<path d="M79.4265 189.409L107.373 189.537C108.284 189.542 109.02 190.28 109.02 191.189C109.02 192.096 108.28 192.829 107.372 192.822L79.4074 192.617C78.5506 192.611 77.8496 191.934 77.8139 191.079C77.776 190.165 78.5103 189.405 79.4265 189.409Z" fill="#7F7F7F"/>
<path d="M79.4074 195.659L97.6749 195.78C98.5865 195.786 99.3223 196.525 99.3223 197.435C99.3223 198.341 98.5818 199.072 97.6743 199.062L79.3795 198.868C78.5164 198.859 77.8148 198.171 77.7897 197.31C77.7635 196.402 78.4971 195.653 79.4074 195.659Z" fill="#7F7F7F"/>
<path d="M119.782 190.346L147.729 190.474C148.64 190.479 149.376 191.217 149.376 192.126C149.376 193.033 148.636 193.766 147.727 193.759L119.763 193.554C118.906 193.548 118.205 192.871 118.169 192.016C118.132 191.102 118.866 190.342 119.782 190.346Z" fill="#7F7F7F"/>
<path d="M119.763 196.907L138.343 197.029C139.254 197.035 139.99 197.774 139.99 198.684C139.99 199.59 139.249 200.321 138.342 200.312L119.735 200.117C118.872 200.108 118.17 199.42 118.145 198.559C118.119 197.651 118.853 196.901 119.763 196.907Z" fill="#7F7F7F"/>
<path d="M161.7 191.595L189.647 191.723C190.558 191.728 191.294 192.466 191.294 193.375C191.294 194.282 190.554 195.015 189.645 195.008L161.681 194.803C160.824 194.797 160.123 194.12 160.087 193.266C160.049 192.351 160.784 191.591 161.7 191.595Z" fill="#7F7F7F"/>
<path d="M161.681 198.469L180.261 198.59C181.172 198.596 181.908 199.335 181.908 200.245C181.908 201.151 181.167 201.883 180.26 201.873L161.653 201.678C160.79 201.669 160.088 200.982 160.063 200.12C160.037 199.212 160.77 198.463 161.681 198.469Z" fill="#7F7F7F"/>
<path d="M79.7755 120.89L132.054 121.048C133.138 121.051 134.016 121.93 134.016 123.012C134.016 124.094 133.134 124.97 132.051 124.965L79.7604 124.712C78.7538 124.707 77.9229 123.925 77.8594 122.922C77.7893 121.819 78.6684 120.887 79.7755 120.89Z" fill="#7F7F7F"/>
<path d="M201.806 25.1363C204.991 24.4636 212.402 25.7674 214.12 29.5398C215.958 33.5762 215.552 88.4421 215.552 116.392L215.59 112.288C221.533 118.465 234.189 132.684 236.689 140.611C239.813 150.518 239.733 163.459 233.234 167.697C225.921 172.468 215.222 167.997 214.45 167.697C213.955 167.506 211.73 167.147 211.363 166.413C209.157 167.697 203.79 167.294 200.849 163.478C198.147 159.971 201.373 156.713 204.309 155.548C201.475 156.367 196.309 156.591 195.373 153.386C194.458 150.254 198.512 146.455 201.85 145.054C196.281 146.838 187.071 148.559 184.675 144.647C181.037 138.708 188.301 132.791 200.481 132.721C204.301 132.699 207.015 132.749 209.126 132.933L208.606 132.837C208.728 98.4658 208.79 31.5579 207.871 29.5398C206.774 27.1308 203.215 25.6867 201.806 25.1363Z" fill="#FBFBFB"/>
<path d="M201.806 25.1363C204.991 24.4636 212.402 25.7674 214.12 29.5398C215.958 33.5762 215.552 88.4421 215.552 116.392L215.59 112.288C221.533 118.465 234.189 132.684 236.689 140.611C239.813 150.518 239.733 163.459 233.234 167.697C225.921 172.468 215.222 167.997 214.45 167.697C213.955 167.506 211.73 167.147 211.363 166.413C209.157 167.697 203.79 167.294 200.849 163.478C197.908 159.661 201.989 156.139 205.076 155.289C202.541 156.289 196.402 156.909 195.373 153.386C194.343 149.864 199.6 145.497 203.054 144.647C197.724 146.543 187.253 148.857 184.675 144.647C181.037 138.708 188.301 132.791 200.481 132.721C212.282 132.654 213.531 133.272 219.045 136.391C223.455 138.886 225.788 139.748 226.463 139.993L213.597 133.754L208.606 132.837C208.728 98.4658 208.79 31.5579 207.871 29.5398C206.774 27.1308 203.215 25.6867 201.806 25.1363Z" stroke="black"/>
<path d="M213.939 208.429C213.057 215.035 203.034 215.768 198.316 215.401C199.971 215.475 203.463 214.668 204.565 213.75C206.019 212.541 207.46 210.264 207.69 208.429C207.783 207.686 207.997 180.48 208.058 166.964C208.364 167.025 209.05 167.147 209.344 167.147C209.638 167.147 210.814 166.535 211.366 166.23L212.101 166.964C212.395 167.257 213.449 167.453 213.939 167.514C214.307 178.4 214.821 201.824 213.939 208.429Z" fill="#FBFBFB" stroke="black"/>
<path d="M127.883 37.9567C128.479 37.9929 129.218 38.2618 130.141 38.782C131.062 39.301 132.153 40.0621 133.449 41.0661C134.91 42.1972 136.957 42.0801 138.447 41.0274C140.495 39.5815 142.603 38.7239 144.276 38.58C145.112 38.5081 145.828 38.6153 146.374 38.9035C146.916 39.1889 147.301 39.658 147.474 40.3388C147.901 42.0189 147.335 43.6749 145.993 45.0927C144.65 46.5129 142.533 47.6865 139.89 48.3785C137.195 49.0837 134.292 48.9744 131.783 47.7974C129.797 46.8658 128.104 45.5592 126.978 44.2255C125.843 42.8823 125.313 41.5498 125.566 40.5552C125.804 39.6168 126.1 38.9472 126.477 38.5231C126.846 38.1084 127.298 37.9211 127.883 37.9567Z" fill="#FBFBFB" stroke="black"/>
<path d="M133.973 9.76122C133.956 5.07158 130.134 1.28388 125.436 1.30114C120.738 1.3184 116.944 5.1341 116.961 9.82374L117.016 24.8728C117.034 29.5625 120.856 33.3502 125.554 33.3329C130.252 33.3156 134.046 29.4999 134.029 24.8103L133.973 9.76122Z" fill="#FBFBFB" stroke="black"/>
<path d="M125.702 8.96023L125.702 8.96023C122.495 8.97201 119.904 11.5771 119.916 14.7788L119.94 21.428C119.952 24.6297 122.562 27.2157 125.769 27.2039L125.769 27.2039C128.976 27.1921 131.567 24.587 131.555 21.3853L131.531 14.7361C131.519 11.5344 128.909 8.94844 125.702 8.96023Z" fill="black" stroke="black"/>
<path d="M155.661 10.1283C155.643 5.43865 151.821 1.65094 147.123 1.6682C142.425 1.68547 138.631 5.50116 138.649 10.1908L138.704 25.2399C138.721 29.9295 142.544 33.7172 147.241 33.7C151.939 33.6827 155.733 29.867 155.716 25.1774L155.661 10.1283Z" fill="#FBFBFB" stroke="black"/>
<path d="M147.389 9.32729L147.389 9.32729C144.182 9.33908 141.592 11.9441 141.603 15.1459L141.628 21.7951C141.64 24.9968 144.249 27.5828 147.457 27.571L147.457 27.571C150.664 27.5592 153.254 24.9541 153.243 21.7524L153.218 15.1032C153.206 11.9015 150.597 9.31551 147.389 9.32729Z" fill="black" stroke="black"/>
<path d="M36.2077 57.2446C39.5162 60.3637 35.2889 69.1708 35.2889 69.3541C35.2889 67.5194 34.2682 66.5523 32.532 65.1342C30.5101 63.4828 26.0991 63.6664 24.8125 64.2167C25.2414 63.7885 26.6505 63.1159 28.1208 61.8314C29.2601 60.8365 29.5912 58.529 29.2236 57.0613C30.4489 56.0826 33.5612 54.7495 36.2077 57.2446Z" fill="#FBFBFB" stroke="black"/>
<path d="M8.2441 17.0826L37.5728 86.3036C38.3183 88.0627 37.498 90.0922 35.7384 90.8427C33.9806 91.5921 31.9475 90.7708 31.2068 89.0121L2.0149 19.7049C1.32173 18.0591 2.03267 16.1591 3.63693 15.3701C5.38016 14.5128 7.48705 15.2959 8.2441 17.0826Z" fill="#986FF2" stroke="black"/>
<path d="M16.1758 90.4539L20.7707 94.3068" stroke="black"/>
<path d="M40.6205 109.902C46.6859 112.288 60.7156 97.426 66.1682 91.1878V118.709C64.6366 120.727 60.5439 125.425 56.4271 128.066C51.2807 131.369 41.3557 135.222 31.247 131.92C21.1383 128.617 18.1975 118.709 16.5433 112.655C15.22 107.811 15.7469 95.8359 16.1758 90.4539C15.6857 90.087 14.2276 88.6558 12.3161 85.8671C9.92676 82.3811 4.96429 73.7576 7.90499 65.8681C10.8457 57.9785 19.6679 54.1256 24.2628 53.575C28.8577 53.0247 29.7766 57.4283 29.0414 60.1804C28.4533 62.382 20.5869 66.7856 16.7272 69.5377C17.0948 69.2929 18.7857 68.1799 22.6086 65.6845C27.3873 62.5654 32.3497 64.0334 34.3715 66.7856C35.9888 68.9872 34.5554 72.7177 33.6363 74.3079C33.2075 74.0634 31.4309 73.7576 28.6738 73.941C26.1754 74.1074 23.8952 75.4087 22.7924 76.5098C23.7114 75.7759 25.9904 74.2714 27.7549 74.1246C29.9604 73.941 35.8418 73.0238 36.9448 78.7114C37.827 83.2617 33.5137 85.9892 31.247 86.7843L32.7173 90.087C32.7173 96.8755 33.108 106.948 40.6205 109.902Z" fill="#FBFBFB" stroke="black"/>
<path d="M31.9816 82.9313L31.9565 82.9691C31.4945 83.6608 30.829 84.1926 30.0518 84.4908C29.2675 84.7922 28.4208 84.8952 27.587 84.7912L27.3867 84.7663M30.0518 84.4908L31.4304 87.1515" stroke="black"/>
</g>
<defs>
<clipPath id="clip0_665_12099">
<rect width="239" height="272" fill="white"/>
</clipPath>
</defs>
</svg>
