<svg width="274" height="228" viewBox="0 0 274 228" fill="none" xmlns="http://www.w3.org/2000/svg">
<path d="M27.0898 58.6161C27.5 58.6161 29.3113 58.8467 30.1657 58.9619" stroke="black"/>
<path d="M25.3814 53.6024C26.8851 54.9855 27.1472 57.5211 27.0902 58.616L30.1661 58.9618L26.0649 48.0701L25.3814 48.243C25.3244 48.5311 25.0738 49.2803 24.527 49.9718L23.1599 51.7007C23.2738 51.7583 23.8776 52.2193 25.3814 53.6024Z" fill="#FDFEFE" stroke="black"/>
<path d="M12.2236 62.4197C6.48199 60.8983 7.21109 56.023 8.29334 53.7755C10.1161 54.0636 14.2059 54.6399 15.983 54.6399C17.7602 54.6399 21.5082 52.7958 23.1601 51.8737C23.4449 52.1042 24.3221 52.8073 25.5524 53.7755C27.0904 54.9857 27.9448 57.7518 26.2359 60.8637C24.5271 63.9757 19.4007 64.3214 12.2236 62.4197Z" fill="#FDFEFE" stroke="black"/>
<path d="M1.97053 47.3784C1.45164 44.2287 4.07808 41.5579 5.72994 40.6359C6.75523 40.8664 8.46405 42.0189 10.6855 42.0189C12.3943 42.0189 15.2993 41.8461 16.6664 41.3274C17.0081 44.0936 18.8878 49.453 19.9131 49.453C20.7675 49.453 23.7864 48.7614 25.3813 48.2428C24.6978 50.6632 20.7817 54.7424 14.1031 54.4666C5.72994 54.1209 2.6541 51.5276 1.97053 47.3784Z" fill="#FDFEFE" stroke="black"/>
<path d="M65.5385 59.9991C70.1865 65.8081 78.9812 74.0604 82.7976 77.4605C82.0001 79.708 80.0634 85.6207 78.6964 91.2913C77.3293 96.9619 77.2154 99.8779 77.3293 100.627C72.1459 96.4778 61.3006 87.5916 59.3867 85.2403C57.4729 82.8891 55.8552 81.6098 55.2856 81.264L40.0771 42.7107C42.2416 41.7887 46.5706 39.7371 46.5706 38.9073C46.5706 38.0774 44.1783 32.6834 42.9821 30.0901L43.7311 29.6171C41.078 31.2872 38.1451 30.8988 36.1468 30.0901C33.5836 29.0527 31.1913 23.5205 32.3874 17.1238C33.5836 10.727 42.4695 9.17106 45.8871 12.4559C48.6212 15.0837 49.0769 19.5441 48.963 21.4459L53.235 30.0901C54.3286 32.303 54.0325 37.4665 53.7477 39.7716C55.7413 44.0938 60.8905 54.1902 65.5385 59.9991Z" fill="#FDFEFE"/>
<path d="M48.963 21.4459C49.9313 23.4052 52.1414 27.8772 53.235 30.0901C54.3286 32.303 54.0325 37.4665 53.7477 39.7716C55.7413 44.0938 60.8905 54.1902 65.5385 59.9991C70.1865 65.8081 78.9812 74.0604 82.7976 77.4605C82.0001 79.708 80.0634 85.6207 78.6964 91.2913C77.3293 96.9619 77.2154 99.8779 77.3293 100.627C72.1459 96.4778 61.3006 87.5916 59.3867 85.2403C57.4729 82.8891 55.8552 81.6098 55.2856 81.264L40.0771 42.7107C42.2416 41.7887 46.5706 39.7371 46.5706 38.9073C46.5706 38.0774 44.1783 32.6834 42.9821 30.0901L43.7502 29.6051L44.52 29.0506L45.8871 27.6698M45.8871 27.6698C48.3478 24.627 48.963 22.2527 48.963 21.4459C49.0769 19.5441 48.6212 15.0837 45.8871 12.4559C42.4695 9.17106 33.5836 10.727 32.3874 17.1238C31.1913 23.5205 33.5836 29.0527 36.1468 30.0901C38.7101 31.1275 42.8112 31.4732 45.8871 27.6698Z" stroke="black"/>
<path d="M44.1787 94.749C43.106 93.3381 31.8182 63.4569 26.2361 48.0701L40.0775 42.7107C45.147 56.6567 56.8969 84.6996 56.653 86.7963C56.3113 89.7353 56.1145 94.5865 55.9695 95.6134C55.7986 96.8236 60.0707 103.516 55.7986 104.776C51.6975 105.986 51.0047 99.8775 50.3304 99.244C47.9381 96.9965 45.8875 96.9965 44.1787 94.749Z" fill="#FDFEFE" stroke="black"/>
<path d="M35.4642 59.3171C33.8237 59.1788 31.9326 60.6426 31.1921 61.3917C34.9515 70.8427 42.5909 90.4634 43.4956 93.2025C44.6918 96.8239 48.6221 95.9595 51.0144 100.637C53.4352 105.369 54.154 105.045 56.1409 104.431C57.8497 103.903 57.8497 101.501 56.6535 97.8704C55.4573 94.2398 56.4826 89.217 56.6535 86.9786C56.7904 85.186 49.9322 68.48 46.5715 60.3544C46.1728 60.0086 44.931 59.3171 43.1539 59.3171C40.9324 59.3171 40.7615 61.0459 39.5653 61.2188C38.3692 61.3917 37.5148 59.49 35.4642 59.3171Z" fill="#639797" stroke="black"/>
<path d="M20.0848 49.4527C18.3076 49.1761 17.2367 43.6329 16.6671 41.1549C25.7238 37.6972 22.8188 30.0896 16.6671 25.0766C12.9959 22.085 2.58362 7.43515 14.9584 1.92521C28.9705 -4.31381 29.654 11.5914 31.363 17.6577C32.6878 22.3604 31.8755 33.8937 42.9829 30.0896C44.0652 32.3947 46.298 37.3853 46.5714 38.9067C46.9132 40.8085 22.3062 49.7984 20.0848 49.4527Z" fill="black" stroke="black"/>
<path d="M268.204 101.664C272.932 100.108 283.139 94.9218 286.147 86.6233C289.154 78.3249 289.678 70.2569 289.564 67.2603C286.83 67.145 278.799 64.3215 277.432 52.5652C275.63 37.0693 285.805 42.8837 285.805 49.2804C285.805 55.4075 290.651 57.2655 291.615 53.9483C292.469 51.0093 287.514 25.3187 294.691 22.656C302.615 19.7163 300.102 36.2563 299.988 43.7479C300.786 36.8326 301.964 21.7123 307.849 22.1374C313.309 22.5318 311.845 31.1667 310.156 38.8278C311.727 33.1809 314.393 27.3291 318.443 28.5343C323.549 30.0536 321.007 38.5614 318.443 43.7479C315.88 48.9345 314 59.8264 313.83 60.8637C313.689 61.7164 312.804 64.1485 311.95 65.5314C311.366 66.477 310.355 66.7418 310.07 66.9147C309.671 77.1148 306.96 99.0365 299.988 105.814C291.273 114.285 286.489 118.088 282.729 119.817C279.722 121.2 270.653 124.197 266.495 125.522C267.065 122.641 268.204 116.048 268.204 112.729V101.664Z" fill="#FDFEFE" stroke="black"/>
<path d="M108.088 247.579L117.145 200.209C119.537 201.938 125.587 205.084 127.227 205.914C129.278 206.951 136.113 209.718 139.872 210.582C136.284 228.735 130.645 261.41 127.227 265.905C123.932 270.238 97.9497 271.887 92.1964 269.19C85.1902 265.905 85.5922 257.66 89.9749 252.593C93.5634 248.444 103.702 247.752 108.088 247.579Z" fill="#FDFEFE" stroke="black"/>
<path d="M228.047 247.406L218.819 198.998C216.427 200.727 210.378 204.565 208.737 205.395C206.687 206.432 200.022 209.544 196.263 210.409C199.851 228.562 205.49 261.237 208.908 265.732C212.203 270.065 238.186 271.714 243.939 269.017C250.945 265.732 250.543 257.487 246.16 252.42C242.572 248.27 232.433 247.579 228.047 247.406Z" fill="#FDFEFE" stroke="black"/>
<path d="M268.204 100.973C266.017 62.5236 239.496 55.7926 226.509 57.2333C226.908 57.9825 230.098 57.9248 233.686 59.4807C238.084 61.3876 245.876 65.1859 249.065 67.9521C252.483 71.1793 263.26 89.1324 259.318 114.804C253.85 150.418 241.718 175.141 215.231 194.331C194.318 209.483 163.625 213.924 149.783 212.829C165.675 217.67 193.667 211.61 200.535 209.199C208.908 206.26 224.987 195.541 233.515 186.724C246.502 173.296 270.392 139.423 268.204 100.973Z" fill="#FDFEFE" stroke="black"/>
<path d="M217.281 20.5815C209.98 9.56842 189.655 5.07951 180.029 4.67612C182.251 5.42528 188.324 6.71956 194.212 8.47958C201.731 10.7271 211.813 17.6425 213.864 24.2121C215.935 30.8476 213.009 45.1311 214.889 49.799C216.393 53.5333 222.749 56.3686 225.996 57.0602C224.857 56.2534 220.617 53.7908 220.186 47.5515C219.674 40.1175 226.68 34.758 217.281 20.5815Z" fill="#FDFEFE" stroke="black"/>
<path d="M212.839 21.7915C210.056 15.7585 202.167 11.3434 194.215 8.41025C184.263 4.73906 173.438 3.96341 162.98 5.74231C137.575 10.0636 102.313 25.5291 85.3612 68.4704C62.9757 125.177 85.3612 175.832 114.753 198.48C164.65 234.44 229.927 199.517 249.579 150.763C268.51 103.795 256.926 76.423 248.382 66.9144C240.497 58.1388 221.512 58.4228 216.427 52.2192C210.618 45.1309 218.82 34.7579 212.839 21.7915Z" fill="#FDFEFE" stroke="black"/>
<rect x="0.467049" y="0.531616" width="13.4403" height="26.3193" rx="6.72013" transform="matrix(0.997868 0.0652674 -0.0637701 0.997965 148.142 82.0995)" fill="#FDFEFE" stroke="black"/>
<rect x="0.467049" y="0.531616" width="8.94147" height="14.6732" rx="4.47073" transform="matrix(0.997868 0.0652674 -0.0637701 0.997965 150.172 88.7156)" fill="black" stroke="black"/>
<rect x="0.467049" y="0.531616" width="13.4403" height="26.3193" rx="6.72013" transform="matrix(0.997868 0.0652674 -0.0637701 0.997965 164.889 83.4824)" fill="#FDFEFE" stroke="black"/>
<rect x="0.467049" y="0.531616" width="8.94147" height="15.4086" rx="4.47073" transform="matrix(0.997868 0.0652674 -0.0637701 0.997965 166.966 89.3651)" fill="black" stroke="black"/>
<path d="M164.137 18.6615C173.464 18.6615 181.068 26.6189 181.068 36.4877C181.068 46.3563 173.464 54.3129 164.137 54.3129C154.811 54.3128 147.208 46.3562 147.208 36.4877C147.208 26.619 154.81 18.6617 164.137 18.6615Z" fill="#F6ED70" stroke="black"/>
<path d="M119.708 47.706C129.035 47.706 136.639 55.6634 136.639 65.5322C136.638 75.4008 129.035 83.3574 119.708 83.3574C110.381 83.3572 102.779 75.4007 102.778 65.5322C102.778 55.6635 110.381 47.7062 119.708 47.706Z" fill="#EFBB48" stroke="black"/>
<path d="M107.404 104.412C116.731 104.412 124.335 112.369 124.335 122.238C124.335 132.107 116.731 140.063 107.404 140.063C98.0777 140.063 90.4748 132.107 90.4746 122.238C90.4746 112.369 98.0776 104.412 107.404 104.412Z" fill="#E85D3A" stroke="#545454"/>
<path d="M218.136 70.5269C227.463 70.5269 235.067 78.4842 235.067 88.3531C235.066 98.2217 227.463 106.178 218.136 106.178C208.809 106.178 201.207 98.2216 201.206 88.3531C201.206 78.4843 208.809 70.527 218.136 70.5269Z" fill="#D0A4FB" stroke="black"/>
<path d="M222.476 122.951C225.341 124.087 227.679 126.194 228.694 129.143C230.347 133.945 229.673 139.981 226.596 145.264C223.656 149.443 219.852 152.53 215.923 154.005C211.996 155.478 207.962 155.339 204.5 153.105C200.79 150.712 199.363 147.143 199.486 143.055C199.61 138.951 201.302 134.338 203.848 129.965C207.465 125.643 210.21 123.566 213.243 122.61C216.243 121.665 219.609 121.814 222.476 122.951Z" fill="#FDFEFE" stroke="black"/>
<path d="M224.324 126.551C227.228 127.519 229.436 129.863 229.677 133.408C229.913 136.875 228.766 140.911 226.5 145.213C223.571 149.462 218.933 152.887 214.624 154.367C212.466 155.108 210.431 155.347 208.755 154.996C207.099 154.649 205.781 153.726 204.995 152.087C202.95 147.822 203.622 143.32 206.714 136.935C208.226 133.813 211.949 130.076 214.836 128.065C217.788 126.009 221.403 125.578 224.324 126.551Z" fill="#F9EB76" stroke="black"/>
<path d="M183.617 161.464C192.944 161.464 200.548 169.421 200.548 179.29C200.548 189.158 192.944 197.115 183.617 197.115C174.291 197.115 166.688 189.158 166.688 179.29C166.688 169.421 174.29 161.464 183.617 161.464Z" fill="black" stroke="black"/>
<path d="M132.011 153.511C141.338 153.511 148.942 161.469 148.942 171.337C148.942 181.206 141.338 189.163 132.011 189.163C122.685 189.162 115.082 181.206 115.082 171.337C115.082 161.469 122.685 153.511 132.011 153.511Z" fill="#D0A4FB" stroke="black"/>
<path d="M2.66227 27.8423C7.43853 22.1372 15.1283 25.249 18.5459 26.9779C19.9699 28.361 22.7496 32.0262 22.4762 35.6222C22.1344 40.1172 16.3202 42.3774 10.0102 41.8461C3.85002 41.3273 -3.11891 34.7479 2.66227 27.8423Z" fill="#FDFEFE" stroke="black"/>
<path d="M55.1147 81.2644C60.4121 86.278 71.451 96.582 73.2282 97.6884C75.0054 98.7949 76.7028 100.109 77.3294 100.627C77.7851 97.2274 78.9698 89.4245 80.0635 85.4136C81.1571 81.4027 82.1141 78.0948 82.4558 76.9423" stroke="black"/>
<path d="M153.785 115.233C154.166 115.213 154.683 115.343 155.385 115.696C156.081 116.045 156.915 116.59 157.917 117.342C159.963 118.877 162.741 118.686 164.837 117.396C166.523 116.358 168.152 115.814 169.392 115.799C170.008 115.792 170.496 115.916 170.852 116.141C171.197 116.36 171.452 116.696 171.576 117.197C171.893 118.473 171.562 119.743 170.671 120.893C169.774 122.052 168.31 123.08 166.407 123.809C163.1 125.077 159.286 124.879 156.319 123.01C154.924 122.132 153.787 121.07 153.056 120.037C152.31 118.983 152.05 118.053 152.212 117.4C152.411 116.601 152.644 116.056 152.911 115.714C153.161 115.394 153.437 115.251 153.785 115.233Z" fill="#FDFEFE" stroke="black"/>
</svg>
