<svg width="222" height="258" viewBox="0 0 222 258" fill="none" xmlns="http://www.w3.org/2000/svg">
<path d="M160.944 198.012C157.554 198.208 153.349 199.663 148.099 202.477C142.858 205.285 136.656 209.402 129.277 214.833C120.968 220.952 109.324 220.318 100.845 214.623C89.1956 206.802 77.206 202.163 67.6855 201.384C62.9299 200.996 58.8572 201.575 55.7486 203.134C52.6709 204.679 50.4769 207.216 49.4911 210.898C47.0654 219.987 50.2853 228.945 57.9178 236.615C65.5596 244.298 77.6047 250.647 92.641 254.39C107.968 258.205 124.484 257.613 138.76 251.246C150.058 246.207 159.686 239.139 166.095 231.924C172.55 224.658 175.563 217.45 174.126 212.069C172.77 206.993 171.086 203.371 168.941 201.077C166.843 198.834 164.272 197.82 160.944 198.012Z" fill="black" stroke="black"/>
<path d="M113.194 252.064C96.9271 252.064 79.9808 243.737 74.5586 240.406C84.7264 233.745 105.059 232.08 113.194 232.08C121.325 232.08 143.694 235.411 149.793 240.406C143.694 244.847 129.541 252.064 113.194 252.064Z" fill="#685BC7" stroke="#685BC7"/>
<path d="M124.248 46.1401C124.347 20.8408 146.198 0.407178 173.054 0.500317C199.907 0.593456 221.599 21.1781 221.499 46.4774L221.183 127.663C221.083 152.962 199.233 173.396 172.377 173.303C145.524 173.21 123.832 152.625 123.931 127.326L124.248 46.1401Z" fill="#FDFEFE" stroke="black"/>
<path d="M171.734 41.6438C190.198 41.7076 205.111 55.8076 205.042 73.1371L204.901 109.126C204.833 126.455 189.811 140.452 171.346 140.388C152.884 140.324 137.972 126.224 138.037 108.895L138.178 72.9059C138.247 55.5767 153.272 41.5802 171.734 41.6438Z" fill="black" stroke="black"/>
<path d="M0.817028 48.4911C0.916392 23.1919 22.767 2.75825 49.623 2.85139C76.4759 2.9445 98.1682 23.5292 98.0688 48.8285L97.749 130.014C97.6527 155.313 75.8021 175.747 48.9461 175.654C22.0932 175.561 0.400977 154.976 0.50034 129.677L0.817028 48.4911Z" fill="#FDFEFE" stroke="black"/>
<path d="M47.7118 43.9948C65.8527 44.0587 80.5036 58.1587 80.436 75.4879L80.2978 111.477C80.2302 128.806 65.4717 142.803 47.3309 142.739C29.19 142.675 14.5391 128.575 14.6067 111.246L14.7449 75.257C14.8125 57.9278 29.571 43.931 47.7118 43.9948Z" fill="black" stroke="black"/>
</svg>
