<svg width="249" height="223" viewBox="0 0 249 223" fill="none" xmlns="http://www.w3.org/2000/svg">
<g clip-path="url(#clip0_1009_10112)">
<path d="M23.3403 96.5286L25.7781 97.4026" stroke="black"/>
<path d="M47.1958 51.7792C51.0266 55.6248 47.8923 69.9586 47.8923 70.1334C46.9057 67.9193 44.6536 63.1063 43.5392 61.5681C42.1461 59.6453 39.3601 56.1492 38.8378 52.6532C38.3154 49.1571 43.365 47.9335 47.1958 51.7792Z" fill="#FDFEFE" stroke="black"/>
<path d="M118.969 237.769L126.075 197.389C129.963 197.8 138.96 198.613 142.65 198.613C146.15 198.613 147.144 198.788 152.716 198.613C148.42 220.18 146.58 260.911 140.038 262.416C131.68 264.339 109.425 265.519 102.949 263.29C96.8546 261.192 95.2635 250.082 100.511 244.062C104.808 239.132 113.717 237.974 118.969 237.769Z" fill="#FDFEFE" stroke="black"/>
<path d="M202.771 237.769L195.551 195.816C191.198 196.341 185.452 197.564 182.84 197.739C178.844 198.006 175.178 198.438 170.825 198.438L170.913 199.183C173.857 224.223 177.47 254.948 180.228 259.794C183.284 265.165 209.039 262.066 216.352 261.542C224.308 260.971 224.086 247.602 218.561 243.699C213.602 240.196 207.132 237.974 202.771 237.769Z" fill="#FDFEFE" stroke="black"/>
<path d="M30.5632 37.7729L13.8585 45.885C13.0794 46.2633 12.7533 47.2041 13.1302 47.9863L39.9842 103.716C40.3611 104.498 41.2983 104.825 42.0774 104.447L58.7821 96.3346C59.5612 95.9563 59.8873 95.0155 59.5104 94.2333L32.6564 38.5041C32.2795 37.7219 31.3423 37.3946 30.5632 37.7729Z" fill="black" stroke="black"/>
<path d="M13.4378 38.7595L25.1025 33.0951C26.7473 32.2964 28.7257 32.9874 29.5214 34.6386L30.9272 37.5562L13.3061 46.1135L11.9002 43.1957C11.1046 41.5445 11.793 39.5584 13.4378 38.7595Z" fill="#685BC7" stroke="black"/>
<path d="M59.4623 105.787L49.2055 110.755C47.5778 111.543 45.621 110.874 44.8106 109.252L42.3809 104.387L58.608 96.4132L60.9991 101.341C61.8011 102.995 61.1123 104.988 59.4623 105.787Z" fill="#685BC7" stroke="black"/>
<path d="M6.79842 31.8519C10.9774 34.2991 12.7187 38.3195 12.8928 39.0187L26.1264 32.551C25.546 30.9778 24.6637 29.1599 24.3851 27.4818C24.1065 25.8037 24.211 20.6645 24.5593 18.9165L2.6194 0.212646L0.181641 1.61106L2.27115 29.929C2.6194 29.929 3.45521 29.8941 6.79842 31.8519Z" fill="#FDFEFE" stroke="black"/>
<path d="M12.7621 25.696C14.1827 25.6729 15.3158 24.4981 15.2927 23.0719C15.2697 21.6457 14.0994 20.5083 12.6788 20.5314C11.2581 20.5545 10.1251 21.7294 10.1481 23.1555C10.1711 24.5817 11.3414 25.7191 12.7621 25.696Z" fill="#F6ED70" stroke="black" stroke-width="4"/>
<path d="M1.40039 0.911865C1.67899 1.05171 8.48149 14.3716 11.8479 21.0141" stroke="black"/>
<path d="M48.5887 112.435C72.9663 129.391 109.707 114.883 116.846 108.24V131.139C90.3789 147.92 56.0761 145.997 40.9271 131.139C31.6319 122.022 24.6755 105.793 23.3405 96.5285C22.4699 95.8877 19.5097 93.382 15.679 88.138C12.1036 83.2435 10.6293 73.979 10.9775 69.609C9.46845 67.5697 7.00746 62.0925 9.23627 56.4988C12.0223 49.5067 25.0817 44.6122 27.3454 50.3807C28.8251 54.1516 24.2826 57.5955 19.8166 61.1132C25.4176 57.3281 33.6696 55.2402 35.7034 60.3444C37.7957 65.5951 33.4071 67.9871 27.4784 70.7036C32.782 68.8769 37.3217 69.1143 38.8376 72.0562C41.4495 77.1254 37.6734 81.2424 35.0069 80.7963C31.8727 80.2719 30.944 82.4279 29.7832 82.7191C33.5559 90.4104 40.8018 107.019 48.5887 112.435Z" fill="#FDFEFE" stroke="black"/>
<path d="M29.7832 82.7191C28.884 82.945 28.0943 83.4847 27.5556 84.2416L27.5195 84.2923" stroke="black"/>
<path d="M234.381 5.98113C237.285 8.02827 236.463 25.5115 236.616 30.8699C236.616 40.7667 237.632 63.2906 234.381 65.9382C225.153 73.4547 194.116 64.417 193.462 74.6783C192.069 96.5285 192.417 141.977 192.417 150.193C192.939 166.1 195.392 190.878 189.631 195.292C183.014 200.361 123.967 199.509 119.632 195.816C115.13 191.981 115.805 159.576 116.369 132.643C116.647 119.353 117.463 105.268 116.916 91.9861C116.546 82.9929 115.842 74.156 115.024 72.889C113.425 70.4152 73.9567 74.772 72.2447 71.357C69.4458 65.7749 67.9584 16.5479 71.7425 12.7665C75.1822 9.32873 230.568 3.29306 234.381 5.98113Z" fill="#FDFEFE" stroke="black"/>
<path d="M234.003 5.86158C233.81 5.82236 233.699 5.80627 233.685 5.80627C233.788 5.80627 233.895 5.82302 234.003 5.86158C236.187 6.30635 248.819 9.72698 248.66 26.4329C248.485 44.6123 250.292 70.2124 244.829 72.5806C237.167 75.9019 208.088 70.1334 204.954 79.3979C201.82 88.6624 207.74 185.503 202.69 191.796C199.139 196.221 188.557 197.279 181.869 197.747C180.93 197.864 180.067 197.914 179.357 197.914C180.102 197.864 180.949 197.811 181.869 197.747C185.463 197.298 190.163 195.868 191.546 192.495C193.984 186.552 192.765 167.848 192.765 165.226V116.106C192.765 112.785 192.069 75.3775 194.158 72.5806C196.248 69.7838 204.44 69.0664 210.874 68.735C224.456 68.0358 235.206 72.3184 236.471 60.3445C237.69 48.8076 236.819 12.9732 235.252 7.7291C234.893 6.52877 234.438 6.0173 234.003 5.86158Z" fill="#FDFEFE"/>
<path d="M233.685 5.80627C233.859 5.80627 248.834 8.2535 248.66 26.4329C248.485 44.6123 250.292 70.2124 244.829 72.5806C237.167 75.9019 208.088 70.1334 204.954 79.3979C201.82 88.6624 207.74 185.503 202.69 191.796C198.651 196.83 185.51 197.506 179.357 197.914C182.782 197.914 189.801 196.749 191.546 192.495C193.984 186.552 192.765 167.848 192.765 165.226C192.765 162.604 192.765 119.372 192.765 116.106C192.765 112.785 192.069 75.3775 194.158 72.5806C196.248 69.7838 204.44 69.0664 210.874 68.735C224.456 68.0358 235.206 72.3184 236.471 60.3445C237.69 48.8076 236.819 12.9732 235.252 7.7291C234.804 6.23157 234.207 5.80627 233.685 5.80627Z" stroke="black"/>
<path d="M93.5131 80.4467C72.2697 80.4467 71.5732 70.1334 71.5732 69.7838C72.2116 70.5994 72.6876 71.7766 73.6628 72.0562C74.8816 72.4058 112.807 71.6895 114.582 72.5806C115.975 73.2799 116.498 82.894 116.498 87.7884C115.279 82.02 114.763 80.4467 93.5131 80.4467Z" fill="#FDFEFE" stroke="black"/>
<path d="M145.581 47.6078L145.581 47.6078C141.257 47.6238 137.766 51.1549 137.782 55.4947L137.833 69.4742C137.849 73.8141 141.366 77.3193 145.689 77.3033L145.689 77.3033C150.013 77.2873 153.504 73.7562 153.488 69.4164L153.437 55.4369C153.421 51.097 149.904 47.5918 145.581 47.6078Z" fill="#FDFEFE" stroke="black"/>
<path d="M151.18 60.0581C151.169 57.1004 148.772 54.7115 145.825 54.7224C142.879 54.7332 140.5 57.1398 140.51 60.0975L140.533 66.274C140.544 69.2318 142.941 71.6207 145.887 71.6098C148.834 71.5989 151.213 69.1923 151.202 66.2346L151.18 60.0581Z" fill="black" stroke="black"/>
<path d="M164.569 47.5988L164.569 47.5988C160.246 47.6147 156.755 51.1458 156.771 55.4857L156.822 69.4652C156.838 73.805 160.355 77.3102 164.678 77.2943L164.678 77.2943C169.001 77.2783 172.493 73.7472 172.477 69.4073L172.426 55.4278C172.41 51.088 168.892 47.5828 164.569 47.5988Z" fill="#FDFEFE" stroke="black"/>
<path d="M170.169 60.0493C170.158 57.0916 167.76 54.7027 164.814 54.7136C161.868 54.7244 159.488 57.131 159.499 60.0887L159.522 66.2652C159.533 69.223 161.93 71.6119 164.876 71.601C167.822 71.5901 170.202 69.1835 170.191 66.2258L170.169 60.0493Z" fill="black" stroke="black"/>
<path d="M144.394 81.1107C145.058 81.1516 145.881 81.4526 146.909 82.0351C147.934 82.6161 149.148 83.4681 150.591 84.5917C152.217 85.8584 154.496 85.7269 156.155 84.5484C158.435 82.9301 160.781 81.9701 162.644 81.8085C163.575 81.7281 164.372 81.8484 164.98 82.1711C165.582 82.4906 166.012 83.0157 166.204 83.7775C166.679 85.6587 166.049 87.5123 164.556 89.0999C163.06 90.6899 160.703 92.0037 157.76 92.7781C154.761 93.5678 151.529 93.4451 148.735 92.1275C146.525 91.0849 144.641 89.6222 143.387 88.129C142.124 86.625 141.534 85.1336 141.815 84.0201C142.08 82.9692 142.41 82.2197 142.829 81.7453C143.24 81.2806 143.743 81.0709 144.394 81.1107Z" fill="#FDFEFE" stroke="black"/>
<path d="M217.912 125.546C215.823 123.623 207.392 116.456 204.432 115.582V105.006L204.445 90.5852C204.525 92.1 218.811 98.1017 228.983 106.317C240.877 115.923 247.441 120.476 247.092 131.139C246.744 141.802 233.162 154.738 226.445 154.388C226.735 155.204 227.141 157.779 226.445 161.555C225.748 165.331 221.279 166.857 219.131 167.149C217.274 170.645 212.34 176.902 207.465 173.966C203.624 171.652 206.159 166.584 208.855 163.169C204.915 167.377 200.074 171.449 196.669 167.323C194.006 164.097 196.594 159.579 200.014 155.773C197.296 157.786 194.459 158.987 192.838 157.36C190.4 154.912 190.575 148.62 196.669 143.201C201.61 138.808 210.309 138.19 214.43 139.355C224.007 131.139 225.749 132.758 217.912 125.546Z" fill="#FDFEFE" stroke="black"/>
</g>
<defs>
<clipPath id="clip0_1009_10112">
<rect width="249" height="265" fill="white"/>
</clipPath>
</defs>
</svg>
