<svg width="227" height="188" viewBox="0 0 227 188" fill="none" xmlns="http://www.w3.org/2000/svg">
<g clip-path="url(#clip0_1049_7377)">
<path d="M188.609 119.796C185.944 125.963 174.237 126.624 168.049 123.45V133.984V139.251V146.433C172.967 146.584 186.229 147.003 196.225 140.655C206.853 133.906 209.395 116.47 210.981 106.646C211.616 106.796 213.837 106.373 217.645 103.471C221.454 100.569 222.418 94.3668 222.259 91.6459C223.212 90.5879 226.049 87.1034 226.049 81.6618C226.049 76.2203 219.391 76.1124 216.694 76.7171C216.852 75.9612 216.599 73.9962 214.314 72.1824C212.029 70.3685 208.285 70.8221 206.698 71.2757C207.967 64.0203 206.522 54.5 200.258 54.5C191.942 54.5 193.369 70.7062 193.369 79.4379C191.783 80.1937 187.651 83.5931 187.181 88.5071C186.705 93.495 188.609 100.297 191.942 102.564C191.942 105.739 191.275 113.629 188.609 119.796Z" fill="#FDFEFE" stroke="black"/>
<path d="M194.049 79.5C198.81 79.9666 207.469 80.8422 207.033 86.5C206.6 92.1 199.675 90.8556 196.213 90.2333C197.511 90.3888 200.368 91.0733 201.406 92.5666C202.445 94.06 202.705 98.4778 202.705 100.5" stroke="black"/>
<path d="M207.049 70.5C206.382 71.9295 204.649 75.0955 204.382 76.9254C204.116 78.7552 204.049 80.7375 204.049 81.5" stroke="black"/>
<path d="M217.049 75.5C216.255 78.4528 214.779 85.3302 212.684 87.311C210.589 89.2917 207.631 88.2376 207.049 88.0725" stroke="black"/>
<path d="M222.049 91.2057C220.386 91.3344 216.607 91.9783 214.339 90.8195C212.139 89.6953 212.049 88.1437 212.049 87.5" stroke="black"/>
<path d="M216.049 47.5L210.049 53.5" stroke="black" stroke-width="4" stroke-linecap="round"/>
<path d="M200.049 42.5V49.5" stroke="black" stroke-width="4" stroke-linecap="round"/>
<path d="M186.049 46.5L190.049 52.5" stroke="black" stroke-width="4" stroke-linecap="round"/>
<path d="M38.5722 23.0171L166.748 21.9165C170.449 21.8847 173.481 24.6907 173.532 28.1945L174.898 83.7647V186.262L103.529 185.991H31.9102V29.3832C31.9102 25.8897 34.8832 23.0488 38.5722 23.0171Z" fill="#FDFEFE" stroke="black"/>
<path d="M160.041 49.8947L46.6692 50.9341C45.2113 50.9474 44.0371 52.0703 44.0371 53.4508V75.198C44.0371 76.603 45.252 77.7363 46.7361 77.7147L159.667 76.0567C161.099 76.0357 162.255 74.9451 162.284 73.5898L162.724 52.4612C162.754 51.0425 161.539 49.8811 160.041 49.8947Z" fill="black" stroke="black"/>
<path d="M106.542 8.52219C106.559 4.07533 110.38 0.483716 115.076 0.500086C119.772 0.516456 123.565 4.13461 123.548 8.58147L123.492 22.8515C123.475 27.2983 119.654 30.8899 114.958 30.8736C110.262 30.8572 106.469 27.239 106.486 22.7922L106.542 8.52219Z" fill="#FDFEFE" stroke="black"/>
<path d="M84.8641 8.87033C84.8814 4.42348 88.7024 0.831862 93.398 0.848231C98.095 0.864601 101.888 4.48276 101.87 8.92961L101.815 23.1996C101.797 27.6465 97.977 31.2381 93.28 31.2217C88.5843 31.2053 84.7914 27.5872 84.8087 23.1403L84.8641 8.87033Z" fill="#FDFEFE" stroke="black"/>
<path d="M87.3077 13.5877C87.3195 10.5517 89.9282 8.09964 93.1339 8.11082C96.3409 8.12199 98.9299 10.5922 98.9179 13.6282L98.8939 19.9331C98.8819 22.9691 96.2729 25.4212 93.0669 25.41C89.8609 25.3988 87.2714 22.9286 87.2832 19.8926L87.3077 13.5877Z" fill="black" stroke="black"/>
<path d="M109.443 13.4514C109.454 10.4154 112.063 7.96336 115.269 7.97453C118.475 7.98571 121.065 10.4559 121.053 13.4919L121.029 19.7968C121.017 22.8328 118.408 25.2849 115.202 25.2737C111.996 25.2625 109.406 22.7923 109.418 19.7564L109.443 13.4514Z" fill="black" stroke="black"/>
<path d="M26.7305 185.991C26.1082 181.634 27.0796 62.6646 26.6483 32.1383C26.6014 28.823 27.1639 25.1363 30.3007 24.0622C32.9107 23.1684 36.1731 23.0798 38.1068 23.0798C35.0216 23.4462 32.1715 25.9574 31.8858 27.6069C31.5277 29.6743 31.8858 36.2688 31.8858 39.5661C32.2439 92.0695 32.1604 184.63 32.1604 185.991H26.7305Z" fill="#FDFEFE" stroke="black"/>
<path d="M112.973 35.1078C112.377 35.1421 111.638 35.3971 110.715 35.8904C109.795 36.3826 108.704 37.1042 107.408 38.0562C105.948 39.1288 103.902 39.0177 102.412 38.0195C100.365 36.6485 98.2576 35.8354 96.5846 35.6989C95.7496 35.6307 95.0336 35.7323 94.4876 36.0056C93.9466 36.2763 93.5606 36.7211 93.3876 37.3666C92.9616 38.9597 93.5266 40.53 94.8686 41.8744C96.2116 43.2211 98.3276 44.3339 100.97 44.9901C103.664 45.6588 106.566 45.5551 109.074 44.4391C111.059 43.5557 112.752 42.3168 113.878 41.0521C115.012 39.7785 115.541 38.5149 115.289 37.5718C115.05 36.682 114.754 36.0471 114.378 35.645C114.009 35.2517 113.557 35.074 112.973 35.1078Z" fill="black" stroke="black"/>
<path d="M104.599 44.6291C101.766 44.6291 98.8161 43.1026 97.8711 42.492C99.6421 41.2708 103.183 40.9655 104.599 40.9655C106.016 40.9655 109.911 41.5761 110.973 42.492C109.911 43.3062 107.446 44.6291 104.599 44.6291Z" fill="#8E50F7" stroke="#8E50F7"/>
<path d="M91.3112 85.4707L46.708 86.0868C45.2332 86.1071 44.0488 87.2544 44.0488 88.6623V134.895C44.0488 136.317 45.257 137.47 46.7471 137.47H90.6805C92.1558 137.47 93.3578 136.339 93.3788 134.93L94.0488 88.0813C94.0688 86.6307 92.8308 85.4498 91.3112 85.4707Z" stroke="black"/>
<path d="M93.0488 136.47L44.0488 87.4705" stroke="black"/>
<path d="M93.0488 86.4705L45.0488 136.47" stroke="black"/>
<path d="M161.1 85.4705L108.04 85.625C106.94 85.6281 106.049 86.4908 106.049 87.5537C106.049 88.6157 106.943 89.4756 108.043 89.4704L161.116 89.2224C162.137 89.2178 162.981 88.4495 163.045 87.4651C163.116 86.3822 162.224 85.4671 161.1 85.4705Z" fill="#7F7F7F"/>
<path d="M161.1 97.4705L108.04 97.625C106.94 97.6281 106.049 98.4908 106.049 99.5537C106.049 100.616 106.943 101.476 108.043 101.47L161.116 101.222C162.137 101.218 162.981 100.45 163.045 99.4651C163.116 98.3822 162.224 97.4671 161.1 97.4705Z" fill="#7F7F7F"/>
<path d="M161.085 120.47L126.053 120.619C124.944 120.624 124.049 121.489 124.049 122.555C124.049 123.618 124.949 124.478 126.055 124.47L161.107 124.232C162.149 124.225 163.002 123.433 163.047 122.432C163.095 121.359 162.201 120.466 161.085 120.47Z" fill="#7F7F7F"/>
<path d="M161.1 109.47L108.04 109.625C106.94 109.628 106.049 110.491 106.049 111.554C106.049 112.616 106.943 113.476 108.043 113.47L161.116 113.222C162.137 113.218 162.981 112.45 163.045 111.465C163.116 110.382 162.224 109.467 161.1 109.47Z" fill="#7F7F7F"/>
<path d="M159.493 146.8L133.563 147.068C132.041 147.084 130.816 148.256 130.816 149.698V168.551C130.816 170.003 132.06 171.181 133.593 171.181H159.156C160.67 171.181 161.905 170.032 161.933 168.599L162.299 149.478C162.328 147.996 161.058 146.784 159.493 146.8Z" stroke="black"/>
<path d="M74.6436 149.343L46.7975 149.614C45.275 149.629 44.0488 150.802 44.0488 152.244V171.096C44.0488 172.548 45.2923 173.725 46.8259 173.726H74.2832C75.7962 173.726 77.0309 172.579 77.06 171.146L77.4485 152.024C77.4785 150.541 76.2092 149.328 74.6436 149.343Z" stroke="black"/>
<path d="M118.029 148.254L90.949 148.523C89.4268 148.538 88.2012 149.711 88.2012 151.153V170.005C88.2012 171.458 89.4447 172.635 90.9783 172.635H117.678C119.192 172.635 120.426 171.487 120.455 170.055L120.835 150.933C120.864 149.451 119.594 148.238 118.029 148.254Z" stroke="black"/>
<path d="M161.338 176.122L132.15 176.249C131.199 176.254 130.43 176.985 130.43 177.886C130.43 178.784 131.203 179.51 132.152 179.504L161.358 179.3C162.253 179.294 162.985 178.624 163.022 177.777C163.062 176.872 162.295 176.118 161.338 176.122Z" fill="#7F7F7F"/>
<path d="M161.359 182.314L142.28 182.434C141.328 182.439 140.559 183.172 140.559 184.073C140.559 184.97 141.333 185.695 142.281 185.685L161.388 185.493C162.289 185.484 163.022 184.802 163.048 183.949C163.076 183.05 162.31 182.308 161.359 182.314Z" fill="#7F7F7F"/>
<path d="M119.191 177.051L90.0034 177.178C89.052 177.182 88.2832 177.913 88.2832 178.814C88.2832 179.712 89.0562 180.439 90.005 180.432L119.211 180.229C120.106 180.222 120.838 179.552 120.876 178.705C120.915 177.8 120.148 177.047 119.191 177.051Z" fill="#7F7F7F"/>
<path d="M119.207 183.551L99.802 183.671C98.85 183.677 98.082 184.409 98.082 185.311C98.082 186.208 98.855 186.933 99.803 186.923L119.236 186.731C120.138 186.722 120.871 186.04 120.897 185.187C120.925 184.287 120.158 183.545 119.207 183.551Z" fill="#7F7F7F"/>
<path d="M75.4102 178.288L46.2222 178.415C45.2708 178.419 44.502 179.151 44.502 180.051C44.502 180.95 45.2751 181.676 46.2239 181.67L75.4301 181.466C76.325 181.46 77.0572 180.789 77.0944 179.943C77.1339 179.037 76.3671 178.284 75.4102 178.288Z" fill="#7F7F7F"/>
<path d="M20.7263 149.858C22.3999 148.308 25.106 147.168 26.7795 146.041V136.836V125C25.5709 126.221 21.1126 128.648 12.0878 134.437C1.76769 141.058 0.93426 149.943 0.515879 156C0.0974959 162.057 8.04345 170.92 12.9246 172.61L26.5148 178.5V162.5L23.5156 160.985C15.8452 154.365 14.4494 155.669 20.7263 149.858Z" fill="#FDFEFE" stroke="black"/>
<path d="M12.0156 187L192.016 186" stroke="#50555C" stroke-width="2"/>
</g>
<defs>
<clipPath id="clip0_1049_7377">
<rect width="227" height="188" fill="white"/>
</clipPath>
</defs>
</svg>
