<svg width="232" height="223" viewBox="0 0 232 223" fill="none" xmlns="http://www.w3.org/2000/svg">
<g clip-path="url(#clip0_1509_993)">
<path d="M70.8293 247.51L77.4307 209.163C80.8205 209.53 89.3784 210.081 92.0603 210.081C95.0933 210.081 97.5913 210.264 101.873 210.631C98.1263 229.896 94.3797 262.555 90.8117 267.325C87.3717 271.924 64.7633 271.362 58.6973 269.527C50.9626 267.188 51.802 257.291 56.3779 251.913C60.1245 247.51 66.25 247.693 70.8293 247.51Z" fill="#FBFBFB" stroke="black"/>
<path d="M182.204 250.557L179.483 214.668C175.736 214.484 168.219 213.934 165.923 213.934C162.658 213.934 158.43 213.567 155.04 213.567C156.646 233.933 157.608 264.213 160.571 268.977C163.428 273.569 184.985 271.154 191.651 271.154C198.606 271.154 198.395 258.702 193.577 255.216C189.252 252.086 186.007 250.74 182.204 250.557Z" fill="#FBFBFB" stroke="black"/>
<path d="M71.589 23.8865L196.055 25.0472C199.637 25.0806 202.524 28.0767 202.524 31.7609V120.36L201.534 208.802C201.491 212.614 198.374 215.625 194.671 215.43L68.8794 208.796C65.3729 208.611 62.6366 205.608 62.6852 201.997L65.0013 30.5073C65.0514 26.8122 67.9954 23.853 71.589 23.8865Z" fill="#FBFBFB" stroke="black"/>
<path d="M78.1033 53.3922L188.193 54.4883C189.609 54.5024 190.749 55.6866 190.749 57.1424V80.0769C190.749 81.5587 189.57 82.7538 188.128 82.731L78.4662 80.9826C77.076 80.9604 75.9528 79.8103 75.9251 78.3809L75.4976 56.0988C75.469 54.6026 76.6482 53.3778 78.1033 53.3922Z" fill="black" stroke="black"/>
<path d="M183.147 160.721L159.046 160.571C157.632 160.562 156.474 161.726 156.449 163.181L156.134 182.209C156.11 183.674 157.246 184.883 158.671 184.908L182.427 185.322C183.834 185.346 185.001 184.207 185.05 182.761L185.711 163.469C185.762 161.974 184.602 160.73 183.147 160.721Z" stroke="black"/>
<path d="M104.257 161.914L78.3753 161.736C76.9602 161.726 75.8011 162.89 75.777 164.345L75.4619 183.372C75.4376 184.837 76.5736 186.045 77.9987 186.071L103.515 186.515C104.921 186.54 106.087 185.402 106.138 183.957L106.819 164.664C106.872 163.168 105.712 161.924 104.257 161.914Z" stroke="black"/>
<path d="M144.59 161.517L119.421 161.35C118.006 161.34 116.847 162.504 116.823 163.959L116.508 182.986C116.484 184.452 117.62 185.66 119.045 185.685L143.857 186.117C145.263 186.142 146.43 185.004 146.48 183.558L147.153 164.266C147.205 162.77 146.045 161.526 144.59 161.517Z" stroke="black"/>
<path d="M184.372 190.344L157.246 190C156.361 189.988 155.635 190.714 155.62 191.623C155.605 192.53 156.311 193.275 157.193 193.284L184.337 193.552C185.169 193.56 185.861 192.895 185.909 192.041C185.961 191.128 185.261 190.355 184.372 190.344Z" fill="#7F7F7F"/>
<path d="M184.287 196.593L166.555 196.405C165.67 196.395 164.944 197.122 164.928 198.032C164.913 198.937 165.62 199.681 166.501 199.687L184.261 199.802C185.098 199.808 185.791 199.132 185.829 198.271C185.87 197.363 185.17 196.602 184.287 196.593Z" fill="#7F7F7F"/>
<path d="M145.189 190.598L118.063 190.254C117.179 190.243 116.452 190.968 116.437 191.877C116.422 192.784 117.128 193.529 118.01 193.538L145.155 193.806C145.986 193.814 146.678 193.149 146.727 192.296C146.779 191.382 146.079 190.61 145.189 190.598Z" fill="#7F7F7F"/>
<path d="M145.098 197.159L127.063 196.966C126.178 196.956 125.452 197.683 125.437 198.593C125.422 199.498 126.129 200.243 127.01 200.248L145.072 200.368C145.91 200.374 146.602 199.698 146.641 198.838C146.682 197.93 145.982 197.168 145.098 197.159Z" fill="#7F7F7F"/>
<path d="M104.483 191.138L77.3569 190.794C76.4726 190.783 75.746 191.508 75.7309 192.417C75.7159 193.324 76.4222 194.069 77.304 194.078L104.449 194.346C105.28 194.354 105.972 193.689 106.021 192.835C106.073 191.922 105.373 191.149 104.483 191.138Z" fill="#7F7F7F"/>
<path d="M104.387 198.011L86.3523 197.818C85.4675 197.809 84.7411 198.535 84.7261 199.445C84.7111 200.351 85.4176 201.095 86.2986 201.1L104.361 201.221C105.199 201.226 105.891 200.55 105.93 199.69C105.971 198.782 105.271 198.02 104.387 198.011Z" fill="#7F7F7F"/>
<path d="M120.979 96.0494L78.3081 96.2855C76.8971 96.2932 75.7537 97.4649 75.7408 98.9157L75.3177 146.558C75.3046 148.024 76.4498 149.223 77.8751 149.236L119.9 149.629C121.311 149.642 122.471 148.487 122.504 147.036L123.574 98.7641C123.607 97.2695 122.433 96.0415 120.979 96.0494Z" stroke="black"/>
<path d="M121.807 148.336L76.2237 97.8183" stroke="black"/>
<path d="M122.62 96.9675L75.957 147.907" stroke="black"/>
<path d="M187.384 96.4515L136.638 96.1345C135.585 96.1278 134.726 96.9986 134.716 98.0812C134.707 99.1629 135.554 100.047 136.606 100.051L187.365 100.273C188.342 100.278 189.156 99.5026 189.226 98.5005C189.304 97.3982 188.459 96.4581 187.384 96.4515Z" fill="#7F7F7F"/>
<path d="M187.273 108.927L136.527 108.61C135.474 108.604 134.614 109.474 134.605 110.557C134.595 111.639 135.443 112.523 136.495 112.527L187.254 112.749C188.231 112.753 189.044 111.978 189.115 110.976C189.193 109.874 188.348 108.934 187.273 108.927Z" fill="#7F7F7F"/>
<path d="M187.097 133.149L153.796 132.989C152.742 132.984 151.883 133.855 151.874 134.939C151.864 136.019 152.712 136.901 153.763 136.904L187.085 136.973C188.075 136.975 188.894 136.177 188.945 135.16C189.001 134.07 188.159 133.154 187.097 133.149Z" fill="#7F7F7F"/>
<path d="M187.163 121.403L136.416 121.086C135.364 121.08 134.504 121.95 134.494 123.033C134.485 124.115 135.332 124.999 136.384 125.003L187.143 125.225C188.121 125.229 188.934 124.454 189.005 123.452C189.082 122.35 188.237 121.41 187.163 121.403Z" fill="#7F7F7F"/>
<path d="M195.896 25.1363C198.989 24.4636 206.183 25.7674 207.85 29.5398C209.634 33.5762 209.241 88.4421 209.241 116.392L209.277 112.288C215.046 118.465 227.332 132.684 229.758 140.611C232.791 150.518 232.713 163.459 226.405 167.697C219.305 172.468 208.92 167.997 208.17 167.697C207.69 167.506 205.53 167.147 205.174 166.413C203.033 167.697 197.822 167.294 194.968 163.478C192.345 159.971 195.476 156.713 198.326 155.548C195.575 156.367 190.561 156.591 189.652 153.386C188.764 150.254 192.699 146.455 195.939 145.054C190.534 146.838 181.593 148.559 179.267 144.647C175.736 138.708 182.787 132.791 194.611 132.721C198.318 132.699 200.953 132.749 203.002 132.933L202.497 132.837C202.617 98.4658 202.676 31.5579 201.784 29.5398C200.719 27.1308 197.264 25.6867 195.896 25.1363Z" fill="#FBFBFB"/>
<path d="M195.896 25.1363C198.989 24.4636 206.183 25.7674 207.85 29.5398C209.634 33.5762 209.241 88.4421 209.241 116.392L209.277 112.288C215.046 118.465 227.332 132.684 229.758 140.611C232.791 150.518 232.713 163.459 226.405 167.697C219.305 172.468 208.92 167.997 208.17 167.697C207.69 167.506 205.53 167.147 205.174 166.413C203.033 167.697 197.822 167.294 194.968 163.478C192.113 159.661 196.075 156.139 199.071 155.289C196.61 156.289 190.651 156.909 189.652 153.386C188.653 149.864 193.755 145.497 197.109 144.647C191.934 146.543 181.771 148.857 179.267 144.647C175.736 138.708 182.787 132.791 194.611 132.721C206.066 132.654 207.278 133.272 212.63 136.391C216.912 138.886 219.177 139.748 219.831 139.993L207.342 133.754L202.497 132.837C202.617 98.4658 202.676 31.5579 201.784 29.5398C200.719 27.1308 197.264 25.6867 195.896 25.1363Z" stroke="black"/>
<path d="M207.672 208.429C206.816 215.035 197.086 215.768 192.507 215.401C194.113 215.475 197.502 214.668 198.573 213.75C199.984 212.541 201.383 210.264 201.606 208.429C201.696 207.686 201.903 180.48 201.963 166.964C202.26 167.025 202.926 167.147 203.212 167.147C203.497 167.147 204.639 166.535 205.174 166.23L205.888 166.964C206.173 167.257 207.196 167.453 207.672 167.514C208.029 178.4 208.529 201.824 207.672 208.429Z" fill="#FBFBFB" stroke="black"/>
<path d="M124.138 37.9567C124.717 37.9929 125.434 38.2618 126.331 38.782C127.225 39.301 128.283 40.0621 129.542 41.0661C130.96 42.1972 132.947 42.0801 134.393 41.0274C136.381 39.5815 138.427 38.7239 140.051 38.58C140.863 38.5081 141.558 38.6153 142.088 38.9035C142.614 39.1889 142.988 39.658 143.156 40.3388C143.57 42.0189 143.021 43.6749 141.718 45.0927C140.414 46.5129 138.359 47.6865 135.793 48.3785C133.178 49.0837 130.36 48.9744 127.924 47.7974C125.996 46.8658 124.353 45.5592 123.26 44.2255C122.158 42.8823 121.644 41.5498 121.889 40.5552C122.121 39.6168 122.408 38.9472 122.774 38.5231C123.132 38.1084 123.571 37.9211 124.138 37.9567Z" fill="#FBFBFB" stroke="black"/>
<path d="M130.05 9.76122C130.033 5.07158 126.323 1.28388 121.763 1.30114C117.203 1.3184 113.519 5.1341 113.536 9.82374L113.59 24.8728C113.607 29.5625 117.317 33.3502 121.877 33.3329C126.438 33.3156 130.121 29.4999 130.104 24.8103L130.05 9.76122Z" fill="#FBFBFB" stroke="black"/>
<path d="M122.02 8.96023L122.02 8.96023C118.907 8.97201 116.392 11.5771 116.404 14.7788L116.427 21.428C116.439 24.6297 118.972 27.2157 122.085 27.2039L122.085 27.2039C125.199 27.1921 127.713 24.587 127.702 21.3853L127.678 14.7361C127.667 11.5344 125.133 8.94844 122.02 8.96023Z" fill="black" stroke="black"/>
<path d="M151.103 10.1283C151.086 5.43865 147.376 1.65094 142.816 1.6682C138.255 1.68547 134.572 5.50116 134.589 10.1908L134.643 25.2399C134.66 29.9295 138.37 33.7172 142.93 33.7C147.49 33.6827 151.174 29.867 151.157 25.1774L151.103 10.1283Z" fill="#FBFBFB" stroke="black"/>
<path d="M143.073 9.32729L143.073 9.32729C139.959 9.33908 137.445 11.9441 137.456 15.1459L137.48 21.7951C137.492 24.9968 140.025 27.5828 143.138 27.571L143.138 27.571C146.251 27.5592 148.766 24.9541 148.755 21.7524L148.731 15.1032C148.719 11.9015 146.186 9.31551 143.073 9.32729Z" fill="black" stroke="black"/>
<path d="M35.1474 57.2446C38.3589 60.3637 34.2555 69.1708 34.2555 69.3541C34.2555 67.5194 33.2647 66.5523 31.5793 65.1342C29.6167 63.4828 25.3348 63.6664 24.0859 64.2167C24.5022 63.7885 25.8701 63.1159 27.2974 61.8314C28.4033 60.8365 28.7247 58.529 28.3678 57.0613C29.5573 56.0826 32.5784 54.7495 35.1474 57.2446Z" fill="#FBFBFB" stroke="black"/>
<path d="M8.00116 17.0826L36.4709 86.3036C37.1945 88.0627 36.3983 90.0922 34.6902 90.8427C32.9839 91.5921 31.0104 90.7708 30.2913 89.012L1.95441 19.7049C1.28153 18.0591 1.97166 16.1591 3.52893 15.3701C5.2211 14.5128 7.26629 15.2959 8.00116 17.0826Z" fill="#986FF2" stroke="black"/>
<path d="M15.7002 90.4539L20.1605 94.3068" stroke="black"/>
<path d="M39.4288 109.902C45.3165 112.288 58.9353 97.426 64.2282 91.1878V118.709C62.7415 120.727 58.7686 125.425 54.7724 128.066C49.7768 131.369 40.1424 135.222 30.3298 131.92C20.5172 128.617 17.6625 118.709 16.0568 112.655C14.7722 107.811 15.2837 95.8359 15.7 90.4539C15.2242 90.087 13.8089 88.6558 11.9533 85.8671C9.63401 82.3811 4.81688 73.7576 7.67145 65.8681C10.5261 57.9785 19.0898 54.1256 23.5502 53.575C28.0104 53.0247 28.9025 57.4283 28.1888 60.1804C27.6179 62.382 19.9819 66.7856 16.2353 69.5377C16.5921 69.2929 18.2335 68.1799 21.9444 65.6845C26.5832 62.5654 31.4002 64.0334 33.3628 66.7856C34.9327 68.9872 33.5413 72.7177 32.6492 74.3079C32.2328 74.0634 30.5083 73.7576 27.832 73.941C25.4068 74.1074 23.1933 75.4087 22.1228 76.5098C23.0149 75.7759 25.2272 74.2714 26.94 74.1246C29.0809 73.941 34.79 73.0238 35.8607 78.7114C36.7171 83.2617 32.5301 85.9892 30.3298 86.7843L31.757 90.087C31.757 96.8755 32.1363 106.948 39.4288 109.902Z" fill="#FBFBFB" stroke="black"/>
<path d="M31.0433 82.9313L31.019 82.9691C30.5705 83.6608 29.9245 84.1926 29.17 84.4908C28.4087 84.7922 27.5868 84.8952 26.7774 84.7912L26.583 84.7663M29.17 84.4908L30.5082 87.1515" stroke="black"/>
</g>
<defs>
<clipPath id="clip0_1509_993">
<rect width="232" height="272" fill="white"/>
</clipPath>
</defs>
</svg>
