<svg width="232" height="224" viewBox="0 0 232 224" fill="none" xmlns="http://www.w3.org/2000/svg">
<g clip-path="url(#clip0_1170_9454)">
<path d="M167.896 25.6807C169.549 25.3212 172.21 25.4952 174.657 26.2246C177.085 26.9485 179.487 28.2757 180.414 30.3711C180.555 30.6912 180.665 31.2027 180.76 31.832C180.858 32.4781 180.945 33.3006 181.026 34.2764C181.187 36.2291 181.318 38.8217 181.425 41.8984C181.64 48.0536 181.758 56.1698 181.82 65.0283C181.933 81.0836 181.864 99.5958 181.85 113.324L181.883 113.325L181.846 117.43C182.199 132.279 182.51 154.769 182.296 174.002C182.189 183.621 181.951 192.433 181.52 199.068C181.305 202.384 181.041 205.168 180.719 207.24C180.559 208.275 180.381 209.146 180.185 209.821C179.996 210.471 179.767 211.027 179.455 211.349C177.619 213.239 175.256 214.231 173.116 214.772C170.975 215.314 169.011 215.416 167.972 215.498L167.808 214.516C168.755 214.272 170.299 213.794 171.697 212.673C173.081 211.563 174.346 209.802 174.717 206.936C174.81 206.221 174.888 203.869 174.95 200.143C175.011 196.434 175.056 191.4 175.086 185.356C175.148 173.27 175.155 157.146 175.126 139.501C175.07 104.21 174.875 62.8358 174.713 35.5029V35.5C174.713 35.0366 174.62 33.7914 174.252 32.6543C174.064 32.0709 173.891 31.6434 173.754 31.3506C173.686 31.2044 173.628 31.0937 173.583 31.0146C173.56 30.9752 173.541 30.9446 173.527 30.9229C173.513 30.9025 173.506 30.8931 173.504 30.8916L173.46 30.8379L173.433 30.7754C172.961 29.7085 171.934 28.8109 170.794 28.0977C169.666 27.3917 168.496 26.9063 167.816 26.6328L166.307 26.0264L167.896 25.6807Z" fill="#FDFEFE" stroke="black"/>
<path d="M43.6496 247.51L50.251 209.163C53.6408 209.53 62.1987 210.081 64.8806 210.081C67.9136 210.081 70.4116 210.264 74.6933 210.631C70.9467 229.896 67.2 262.555 63.632 267.325C60.1921 271.924 37.5836 271.362 31.5176 269.527C23.7829 267.188 24.6223 257.291 29.1982 251.913C32.9448 247.51 39.0703 247.693 43.6496 247.51Z" fill="#FDFEFE" stroke="black"/>
<path d="M155.024 250.557L152.302 214.668C148.556 214.484 141.039 213.934 138.743 213.934C135.478 213.934 131.25 213.567 127.86 213.567C129.466 233.933 130.427 264.213 133.391 268.977C136.248 273.569 157.805 271.154 164.471 271.154C171.425 271.154 171.214 258.702 166.397 255.216C162.072 252.086 158.827 250.74 155.024 250.557Z" fill="#FDFEFE" stroke="black"/>
<path d="M44.4093 23.8865L168.875 25.0472C172.457 25.0806 175.344 28.0767 175.344 31.7609V120.36L174.354 208.802C174.312 212.614 171.194 215.625 167.492 215.43L41.6997 208.796C38.1933 208.611 35.4569 205.608 35.5055 201.997L37.8216 30.5073C37.8717 26.8122 40.8157 23.853 44.4093 23.8865Z" fill="#FDFEFE" stroke="black"/>
<path d="M50.9231 53.3922L161.013 54.4883C162.429 54.5024 163.569 55.6866 163.569 57.1424V80.0769C163.569 81.5587 162.389 82.7538 160.948 82.7311L51.286 80.9826C49.8959 80.9604 48.7726 79.8103 48.745 78.3809L48.3174 56.0988C48.2889 54.6026 49.468 53.3778 50.9231 53.3922Z" fill="black" stroke="black"/>
<path d="M116.664 96.1562L159.331 96.791C160.742 96.812 161.875 97.9943 161.875 99.4452V147.089C161.875 148.556 160.719 149.744 159.293 149.744H117.267C115.855 149.744 114.706 148.578 114.686 147.126L114.045 98.8465C114.025 97.3516 115.21 96.1346 116.664 96.1562Z" stroke="black"/>
<path d="M115.371 148.433L161.401 98.3435" stroke="black"/>
<path d="M115.015 97.0591L161.223 148.433" stroke="black"/>
<path d="M51.6353 159.812L75.7354 160.082C77.1498 160.098 78.2886 161.282 78.2886 162.737V181.767C78.2886 183.233 77.1328 184.421 75.7074 184.421H51.9481C50.5409 184.421 49.393 183.262 49.3675 181.815L49.0268 162.515C49.0004 161.019 50.1807 159.796 51.6353 159.812Z" stroke="black"/>
<path d="M130.495 162.379L156.376 162.653C157.791 162.668 158.93 163.851 158.93 165.307V184.336C158.93 185.802 157.775 186.99 156.349 186.99H130.83C129.423 186.99 128.276 185.832 128.249 184.387L127.888 165.084C127.86 163.588 129.04 162.364 130.495 162.379Z" stroke="black"/>
<path d="M90.1733 161.279L115.342 161.551C116.757 161.566 117.896 162.75 117.896 164.205V183.235C117.896 184.701 116.74 185.889 115.315 185.889H90.4991C89.0925 185.889 87.945 184.731 87.9186 183.285L87.5654 163.983C87.5381 162.487 88.7181 161.264 90.1733 161.279Z" stroke="black"/>
<path d="M50.2573 95.9376L101.004 96.095C102.057 96.0981 102.909 96.9769 102.909 98.0596C102.909 99.1414 102.053 100.017 101.002 100.012L50.2427 99.7594C49.2655 99.7547 48.459 98.9721 48.3974 97.9694C48.3293 96.8664 49.1826 95.9342 50.2573 95.9376Z" fill="#7F7F7F"/>
<path d="M50.2573 108.414L101.004 108.571C102.057 108.575 102.909 109.453 102.909 110.536C102.909 111.618 102.053 112.494 101.002 112.488L50.2427 112.236C49.2655 112.231 48.459 111.449 48.3974 110.446C48.3293 109.343 49.1826 108.411 50.2573 108.414Z" fill="#7F7F7F"/>
<path d="M50.2181 132.636L83.5198 132.787C84.5732 132.792 85.4244 133.672 85.4244 134.755C85.4244 135.836 84.5686 136.71 83.5176 136.702L50.1968 136.46C49.2062 136.453 48.3952 135.648 48.3523 134.63C48.3068 133.54 49.1567 132.631 50.2181 132.636Z" fill="#7F7F7F"/>
<path d="M49.9203 189.409L77.0485 189.537C77.9327 189.542 78.6473 190.28 78.6473 191.189C78.6473 192.096 77.9288 192.829 77.047 192.822L49.9017 192.617C49.07 192.611 48.3895 191.934 48.3549 191.079C48.3181 190.165 49.0308 189.405 49.9203 189.409Z" fill="#7F7F7F"/>
<path d="M49.902 195.658L67.6345 195.78C68.5194 195.786 69.2336 196.525 69.2336 197.435C69.2336 198.34 68.5148 199.072 67.6339 199.062L49.8749 198.868C49.0371 198.859 48.356 198.171 48.3317 197.31C48.3062 196.401 49.0183 195.653 49.902 195.658Z" fill="#7F7F7F"/>
<path d="M89.0931 190.346L116.221 190.474C117.106 190.479 117.82 191.217 117.82 192.126C117.82 193.033 117.102 193.766 116.22 193.759L89.0746 193.554C88.2429 193.548 87.5623 192.871 87.5277 192.016C87.491 191.102 88.2037 190.342 89.0931 190.346Z" fill="#7F7F7F"/>
<path d="M89.0753 196.907L107.111 197.029C107.996 197.035 108.71 197.774 108.71 198.684C108.71 199.59 107.991 200.321 107.11 200.312L89.0486 200.117C88.2108 200.108 87.5294 199.42 87.5051 198.559C87.4793 197.651 88.1917 196.901 89.0753 196.907Z" fill="#7F7F7F"/>
<path d="M129.784 191.595L156.912 191.723C157.797 191.728 158.511 192.466 158.511 193.375C158.511 194.282 157.793 195.015 156.911 195.008L129.766 194.803C128.934 194.797 128.253 194.12 128.219 193.266C128.182 192.351 128.895 191.591 129.784 191.595Z" fill="#7F7F7F"/>
<path d="M129.767 198.469L147.802 198.59C148.687 198.596 149.401 199.335 149.401 200.245C149.401 201.151 148.683 201.883 147.802 201.873L129.74 201.678C128.902 201.669 128.221 200.982 128.196 200.12C128.171 199.212 128.883 198.463 129.767 198.469Z" fill="#7F7F7F"/>
<path d="M50.2573 120.89L101.004 121.048C102.057 121.051 102.909 121.93 102.909 123.012C102.909 124.094 102.053 124.97 101.002 124.965L50.2427 124.712C49.2655 124.707 48.459 123.925 48.3974 122.922C48.3293 121.819 49.1826 120.887 50.2573 120.89Z" fill="#7F7F7F"/>
<path d="M96.9582 37.9567C97.5367 37.9929 98.2543 38.2618 99.1504 38.782C100.044 39.301 101.103 40.0621 102.362 41.0661C103.779 42.1972 105.766 42.0801 107.213 41.0274C109.201 39.5815 111.247 38.7239 112.871 38.58C113.683 38.5081 114.378 38.6153 114.908 38.9035C115.434 39.1889 115.808 39.658 115.976 40.3388C116.39 42.0189 115.841 43.6749 114.538 45.0927C113.234 46.5129 111.179 47.6865 108.613 48.3785C105.998 49.0837 103.179 48.9744 100.744 47.7974C98.8161 46.8658 97.1729 45.5592 96.0794 44.2255C94.978 42.8823 94.4639 41.5498 94.709 40.5552C94.9407 39.6168 95.228 38.9472 95.5939 38.5231C95.9516 38.1084 96.3904 37.9211 96.9582 37.9567Z" fill="#FDFEFE" stroke="black"/>
<path d="M102.87 9.76122C102.854 5.07158 99.1433 1.28388 94.5831 1.30114C90.0229 1.3184 86.3398 5.1341 86.3566 9.82374L86.4104 24.8728C86.4272 29.5625 90.1376 33.3502 94.6978 33.3329C99.258 33.3156 102.941 29.4999 102.924 24.8103L102.87 9.76122Z" fill="#FDFEFE" stroke="black"/>
<path d="M94.8404 8.96023L94.8404 8.96023C91.727 8.97201 89.2124 11.5771 89.2239 14.7788L89.2477 21.428C89.2591 24.6297 91.7923 27.2157 94.9057 27.2039L94.9057 27.2039C98.019 27.1921 100.534 24.587 100.522 21.3853L100.498 14.7361C100.487 11.5344 97.9537 8.94844 94.8404 8.96023Z" fill="black" stroke="black"/>
<path d="M123.923 10.1283C123.906 5.43865 120.196 1.65094 115.635 1.6682C111.075 1.68547 107.392 5.50116 107.409 10.1908L107.463 25.2399C107.479 29.9295 111.19 33.7172 115.75 33.7C120.31 33.6827 123.993 29.867 123.977 25.1774L123.923 10.1283Z" fill="#FDFEFE" stroke="black"/>
<path d="M115.893 9.32729L115.893 9.32729C112.779 9.33908 110.265 11.9441 110.276 15.1459L110.3 21.7951C110.311 24.9968 112.845 27.5828 115.958 27.571L115.958 27.571C119.071 27.5592 121.586 24.9541 121.574 21.7524L121.551 15.1032C121.539 11.9015 119.006 9.31551 115.893 9.32729Z" fill="black" stroke="black"/>
<path d="M36.4343 113C25.4244 116.473 11.1649 131.555 8.90919 138.9C6.08952 148.081 8.67849 162.045 14.5427 165.972C21.1432 170.393 30.7973 166.25 31.4948 165.972C31.9409 165.795 33.9487 165.462 34.2804 164.782C36.2708 165.972 41.1149 165.598 43.7687 162.062C46.2069 158.813 43.296 155.793 40.6466 154.713C43.2037 155.473 47.8655 155.681 48.7105 152.711C49.5364 149.808 45.8779 146.288 42.8654 144.989C47.8905 146.642 56.2024 148.237 58.3647 144.612C61.6478 139.109 55.0924 133.626 44.1005 133.561C39.3481 133.533 36.4921 133.632 34.3441 134.006L36.1517 133.561L36.4343 113Z" fill="#FDFEFE"/>
<path d="M36.4343 113C25.4244 116.473 11.1649 131.555 8.90919 138.9C6.08952 148.081 8.67849 162.045 14.5427 165.972C21.1432 170.393 30.7973 166.25 31.4948 165.972C31.9409 165.795 33.9487 165.462 34.2804 164.782C36.2708 165.972 41.1149 165.598 43.7687 162.062C46.4225 158.525 42.7394 155.261 39.9538 154.474C42.2419 155.401 47.7817 155.975 48.7105 152.711C49.6393 149.446 44.8957 145.4 41.7784 144.612C46.5884 146.369 56.0377 148.513 58.3647 144.612C61.6478 139.109 55.0924 133.626 44.1005 133.561C33.4511 133.498 32.3242 134.071 27.3483 136.961C23.3676 139.274 21.2622 140.072 20.654 140.299L32.2644 134.518L36.1517 133.561L36.4343 113Z" stroke="black"/>
<path d="M195.209 145.96C193.172 144.038 184.955 136.871 182.07 135.997L181.981 125.306L181.715 111.048C181.793 112.563 196.084 118.516 205.999 126.732C217.59 136.338 223.987 140.891 223.648 151.554C223.308 162.217 210.071 175.152 203.524 174.803C203.807 175.618 204.203 178.194 203.524 181.97C202.845 185.745 198.49 187.272 196.397 187.563C194.587 191.059 189.778 197.317 185.026 194.381C181.283 192.067 183.753 186.999 186.381 183.584C182.541 187.792 177.823 191.864 174.505 187.738C171.909 184.512 174.432 179.994 177.765 176.188C175.116 178.201 172.351 179.402 170.771 177.774C168.395 175.327 168.565 169.034 174.505 163.615C179.32 159.222 187.798 158.605 191.815 159.77C201.148 151.554 202.847 153.172 195.209 145.96Z" fill="#FDFEFE" stroke="black"/>
</g>
<defs>
<clipPath id="clip0_1170_9454">
<rect width="232" height="272" fill="white"/>
</clipPath>
</defs>
</svg>
