<svg width="217" height="223" viewBox="0 0 217 223" fill="none" xmlns="http://www.w3.org/2000/svg">
<g clip-path="url(#clip0_1729_851)">
<path d="M67.4228 104.48C70.5754 109.963 82.8779 113.339 88.2566 109.688L87.8283 116.113L87.2832 120.824L86.7576 130.248C82.2192 130.928 72.3874 130.827 62.4261 125.978C51.8358 120.823 47.8052 103.646 45.2462 94.6185C44.6752 94.8294 42.5711 94.6768 38.7227 92.3767C34.8743 90.0766 33.2935 84.3738 33.1387 81.8082C32.1397 80.9219 29.1254 77.97 28.5219 72.8738C27.9184 67.7777 34.0722 66.9467 36.6372 67.217C36.4064 66.5267 36.4236 64.6586 38.3384 62.7091C40.2531 60.7599 43.7711 60.774 45.2907 61.0247C43.3105 54.3694 43.5929 45.295 49.394 44.608C57.0955 43.696 57.5704 59.0296 58.5388 67.2069C60.092 67.7408 64.2959 70.471 65.2755 75.0212C66.2696 79.6406 65.2603 86.2195 62.4261 88.7081C62.778 91.681 64.2702 98.9969 67.4228 104.48Z" fill="#FDFEFE" stroke="black"/>
<path d="M58.3591 67.1268C53.7252 68.1195 45.0105 69.5738 46.0688 74.8273C47.1162 80.0272 53.7942 78.0535 57.1329 77.0662C55.8722 77.3636 53.1368 78.3382 52.2803 79.8594C51.4238 81.3806 51.6587 85.5527 51.8833 87.4487" stroke="black"/>
<path d="M45.2549 60.782C46.152 61.8647 48.431 64.2285 48.9121 65.694C49.3931 67.1591 49.6616 68.7765 49.7356 69.402" stroke="black"/>
<path d="M36.4541 66.8154C37.5441 69.3239 39.7159 75.2101 41.9869 76.7103C44.2578 78.2109 46.6013 77.0648 47.1574 76.8518" stroke="black"/>
<path d="M33.0469 81.8704C34.4851 81.8411 37.7985 82.154 39.589 80.6726C41.3259 79.2353 41.555 77.0217 41.4726 76.326" stroke="black"/>
<path d="M93.8804 241.218L99.4299 208.846C102.466 209.175 109.492 209.827 112.374 209.827C115.107 209.827 115.883 209.967 120.235 209.827C116.879 227.118 115.443 259.771 110.334 260.978C103.807 262.52 86.4278 263.466 81.3702 261.678C76.6108 259.997 75.3682 251.09 79.4664 246.263C82.8219 242.311 89.7793 241.383 93.8804 241.218Z" fill="#FDFEFE" stroke="black"/>
<path d="M159.316 242.479L153.678 208.846C150.279 209.267 145.791 210.247 143.752 210.388C140.631 210.602 137.768 210.948 134.369 210.948L134.437 211.545C136.737 231.62 139.558 256.252 141.712 260.137C144.099 264.443 164.211 261.959 169.923 261.538C176.135 261.081 175.962 250.363 171.647 247.234C167.774 244.425 162.722 242.644 159.316 242.479Z" fill="#FDFEFE" stroke="black"/>
<path d="M187.413 10.3969C186.024 7.77558 180.414 5.85586 177.702 6.0541C181.779 6.24215 184.61 10.0933 184.813 11.9356C185.1 14.5362 179.583 94.3804 176.551 134.518C174.306 162.104 171.452 217.631 169.582 220.384C167.711 223.137 163.388 222.857 161.458 222.869C164.035 223.281 170.286 223.35 172.42 221.623C174.329 220.079 174.778 205.178 175.272 197.025C178.989 135.623 189.61 14.5432 187.413 10.3969Z" fill="white" stroke="black"/>
<path d="M178.243 6.091L98.8443 0.672983C94.9575 0.407757 91.5916 3.34375 91.3264 7.23072L77.4865 210.069C77.2213 213.956 80.1572 217.322 84.044 217.587L163.443 223.005C167.329 223.27 170.695 220.334 170.96 216.447L184.8 13.6092C185.066 9.72224 182.13 6.35623 178.243 6.091Z" fill="white" stroke="black"/>
<path d="M90.6719 15.587L102.944 16.4039" stroke="black" stroke-width="2"/>
<path d="M89.8066 28.5818L115.073 30.2636" stroke="black" stroke-width="2"/>
<path d="M88.9658 41.2153L101.238 42.0322" stroke="black" stroke-width="2"/>
<path d="M88.1006 54.2102L113.367 55.892" stroke="black" stroke-width="2"/>
<path d="M87.2598 66.8436L99.5319 67.6605" stroke="black" stroke-width="2"/>
<path d="M86.3945 79.8384L111.66 81.5202" stroke="black" stroke-width="2"/>
<path d="M85.5537 92.4718L97.8258 93.289" stroke="black" stroke-width="2"/>
<path d="M84.6895 105.467L109.956 107.148" stroke="black" stroke-width="2"/>
<path d="M83.8242 118.461L96.0963 119.278" stroke="black" stroke-width="2"/>
<path d="M82.9834 131.095L108.249 132.777" stroke="black" stroke-width="2"/>
<path d="M82.1182 144.09L94.3903 144.906" stroke="black" stroke-width="2"/>
<path d="M81.2773 156.723L106.544 158.405" stroke="black" stroke-width="2"/>
<path d="M80.4121 169.718L105.678 171.4" stroke="black" stroke-width="2"/>
<path d="M79.5723 182.352L91.8444 183.168" stroke="black" stroke-width="2"/>
<path d="M78.707 195.346L103.973 197.028" stroke="black" stroke-width="2"/>
<path d="M127.052 124.567C127.514 124.625 128.077 124.873 128.77 125.326C129.461 125.778 130.272 126.427 131.231 127.276C132.312 128.233 133.914 128.247 135.13 127.503C136.801 126.481 138.488 125.921 139.8 125.895C140.456 125.882 141.009 126.002 141.42 126.255C141.827 126.506 142.104 126.891 142.203 127.43C142.45 128.762 141.923 130.023 140.805 131.059C139.684 132.097 137.973 132.903 135.877 133.307C133.74 133.718 131.482 133.483 129.586 132.437C128.086 131.609 126.833 130.503 126.023 129.406C125.208 128.301 124.863 127.235 125.111 126.473C125.346 125.754 125.611 125.247 125.927 124.936C126.235 124.632 126.597 124.509 127.052 124.567Z" fill="#FDFEFE" stroke="black"/>
<path d="M133.248 102.905C133.475 99.249 130.69 96.1006 127.026 95.8727C123.363 95.6445 120.208 98.4235 119.981 102.079L119.251 113.811C119.024 117.467 121.809 120.615 125.473 120.844C129.136 121.072 132.29 118.293 132.518 114.637L133.248 102.905Z" fill="#FDFEFE" stroke="black"/>
<path d="M126.84 101.856C124.338 101.7 122.185 103.597 122.03 106.093L121.707 111.276C121.552 113.772 123.454 115.922 125.955 116.078C128.456 116.233 130.61 114.336 130.765 111.84L131.087 106.657C131.243 104.161 129.341 102.011 126.84 101.856Z" fill="black" stroke="black"/>
<path d="M150.138 104.306C150.365 100.65 147.58 97.5014 143.916 97.2735C140.253 97.0452 137.098 99.8243 136.871 103.48L136.141 115.212C135.914 118.868 138.699 122.016 142.363 122.244C146.026 122.472 149.18 119.693 149.408 116.038L150.138 104.306Z" fill="#FDFEFE" stroke="black"/>
<path d="M143.73 103.256C141.228 103.101 139.075 104.998 138.919 107.494L138.597 112.677C138.442 115.173 140.343 117.323 142.845 117.478C145.346 117.634 147.499 115.737 147.654 113.241L147.977 108.058C148.132 105.561 146.231 103.412 143.73 103.256Z" fill="black" stroke="black"/>
<path d="M215.863 154.448C218.98 141.982 195.464 125.536 180.687 120.824L178.974 141.813C178.974 141.813 181.567 142.155 185.508 144.383C188.651 146.16 191.378 149.145 193.005 151.186C193.595 151.926 193.459 152.992 192.734 153.601L188.666 157.018L183.099 161.087C175.174 161.087 168.535 170.725 170.464 182.29C172.643 195.354 186.713 198.674 194.877 192.141C201.301 187.001 197.66 179.292 193.807 177.578C199.874 174.223 212.223 169.012 215.863 154.448Z" fill="white" stroke="black"/>
<path d="M188.666 183.146C188.809 183.289 189.137 183.703 189.308 184.217C189.48 184.731 189.523 185.003 189.523 185.074" stroke="black"/>
<path d="M186.524 183.361C188.452 183.361 191.557 182.29 192.521 180.362C193.206 178.992 193.663 176.864 193.591 176.293" stroke="black"/>
</g>
<path d="M20.9365 40.9434L20.9521 40.9922L21.002 41.0078L33.5791 45L21.002 48.9922L20.9521 49.0078L20.9365 49.0566L16.9551 61.668L12.9746 49.0566L12.959 49.0078L12.9092 48.9922L0.331055 45L12.9092 41.0078L12.959 40.9922L12.9746 40.9434L16.9551 28.3311L20.9365 40.9434Z" fill="#685BC7" stroke="black" stroke-width="0.2"/>
<path d="M39.9248 19.9043L39.9404 19.9541L39.9902 19.9697L49.5371 23L39.9902 26.0303L39.9404 26.0459L39.9248 26.0957L36.9033 35.666L33.8818 26.0957L33.8662 26.0459L33.8164 26.0303L24.2686 23L33.8164 19.9697L33.8662 19.9541L33.8818 19.9043L36.9033 10.333L39.9248 19.9043Z" fill="#FDFEFE" stroke="black" stroke-width="0.2"/>
<path d="M7.979 9L9.89728 15.0767L15.958 17L9.89728 18.9233L7.979 25L6.06072 18.9233L0 17L6.06072 15.0767L7.979 9Z" fill="black"/>
<defs>
<clipPath id="clip0_1729_851">
<rect width="191" height="263" fill="white" transform="translate(25.5098)"/>
</clipPath>
</defs>
</svg>
